<svg version="1.1" viewBox="0.0 0.0 960.0 540.0" fill="none" stroke="none" stroke-linecap="square" stroke-miterlimit="10" xmlns:xlink="http://www.w3.org/1999/xlink" xmlns="http://www.w3.org/2000/svg"><clipPath id="p.0"><path d="m0 0l960.0 0l0 540.0l-960.0 0l0 -540.0z" clip-rule="nonzero"/></clipPath><g clip-path="url(#p.0)"><path fill="#ffffff" d="m0 0l960.0 0l0 540.0l-960.0 0z" fill-rule="evenodd"/><path fill="#f3f3f3" d="m489.98425 78.149605l140.69293 0l0 187.05511l-140.69293 0z" fill-rule="evenodd"/><path fill="#000000" d="m500.21863 93.60085l0 -1.890625l1.640625 0l0 1.890625l-1.640625 0zm0 11.46875l0 -9.671875l1.640625 0l0 9.671875l-1.640625 0zm4.535431 0l0 -8.40625l-1.453125 0l0 -1.265625l1.453125 0l0 -1.03125q0 -0.96875 0.171875 -1.453125q0.234375 -0.640625 0.828125 -1.03125q0.59375 -0.390625 1.671875 -0.390625q0.6875 0 1.53125 0.15625l-0.25 1.4375q-0.5 -0.09375 -0.953125 -0.09375q-0.75 0 -1.0625 0.328125q-0.3125 0.3125 -0.3125 1.1875l0 0.890625l1.890625 0l0 1.265625l-1.890625 0l0 8.40625l-1.625 0zm72.62875 -7.8125l0 -1.859375l1.859375 0l0 1.859375l-1.859375 0zm0 7.8125l0 -1.875l1.859375 0l0 1.875l-1.859375 0z" fill-rule="nonzero"/><path fill="#000000" d="m506.84363 167.96024l1.6875 0.203125q-0.40625 1.484375 -1.484375 2.3125q-1.078125 0.8125 -2.765625 0.8125q-2.125 0 -3.375 -1.296875q-1.234375 -1.3125 -1.234375 -3.671875q0 -2.453125 1.25 -3.796875q1.265625 -1.34375 3.265625 -1.34375q1.9375 0 3.15625 1.328125q1.234375 1.3125 1.234375 3.703125q0 0.15625 0 0.4375l-7.21875 0q0.09375 1.59375 0.90625 2.453125q0.8125 0.84375 2.015625 0.84375q0.90625 0 1.546875 -0.46875q0.640625 -0.484375 1.015625 -1.515625zm-5.390625 -2.65625l5.40625 0q-0.109375 -1.21875 -0.625 -1.828125q-0.78125 -0.953125 -2.03125 -0.953125q-1.125 0 -1.90625 0.765625q-0.765625 0.75 -0.84375 2.015625zm9.094452 5.765625l0 -13.359375l1.6406555 0l0 13.359375l-1.6406555 0zm3.535431 -2.890625l1.625 -0.25q0.125 0.96875 0.75 1.5q0.625 0.515625 1.75 0.515625q1.125 0 1.671875 -0.453125q0.546875 -0.46875 0.546875 -1.09375q0 -0.546875 -0.484375 -0.875q-0.328125 -0.21875 -1.671875 -0.546875q-1.8125 -0.46875 -2.515625 -0.796875q-0.6875 -0.328125 -1.046875 -0.90625q-0.359375 -0.59375 -0.359375 -1.3125q0 -0.640625 0.296875 -1.1875q0.296875 -0.5625 0.8125 -0.921875q0.375 -0.28125 1.03125 -0.46875q0.671875 -0.203125 1.421875 -0.203125q1.140625 0 2.0 0.328125q0.859375 0.328125 1.265625 0.890625q0.421875 0.5625 0.578125 1.5l-1.609375 0.21875q-0.109375 -0.75 -0.640625 -1.171875q-0.515625 -0.421875 -1.46875 -0.421875q-1.140625 0 -1.625 0.375q-0.46875 0.375 -0.46875 0.875q0 0.3125 0.1875 0.578125q0.203125 0.265625 0.640625 0.4375q0.234375 0.09375 1.4375 0.421875q1.75 0.453125 2.4375 0.75q0.6875 0.296875 1.078125 0.859375q0.390625 0.5625 0.390625 1.40625q0 0.828125 -0.484375 1.546875q-0.46875 0.71875 -1.375 1.125q-0.90625 0.390625 -2.046875 0.390625q-1.875 0 -2.875 -0.78125q-0.984375 -0.78125 -1.25 -2.328125zm16.609375 -0.21875l1.6875 0.203125q-0.40625 1.484375 -1.484375 2.3125q-1.078125 0.8125 -2.765625 0.8125q-2.125 0 -3.375 -1.296875q-1.234375 -1.3125 -1.234375 -3.671875q0 -2.453125 1.25 -3.796875q1.265625 -1.34375 3.265625 -1.34375q1.9375 0 3.15625 1.328125q1.234375 1.3125 1.234375 3.703125q0 0.15625 0 0.4375l-7.21875 0q0.09375 1.59375 0.90625 2.453125q0.8125 0.84375 2.015625 0.84375q0.90625 0 1.546875 -0.46875q0.640625 -0.484375 1.015625 -1.515625zm-5.390625 -2.65625l5.40625 0q-0.109375 -1.21875 -0.625 -1.828125q-0.78125 -0.953125 -2.03125 -0.953125q-1.125 0 -1.90625 0.765625q-0.765625 0.75 -0.84375 2.015625zm14.777771 -2.046875l0 -1.859375l1.859375 0l0 1.859375l-1.859375 0zm0 7.8125l0 -1.875l1.859375 0l0 1.875l-1.859375 0z" fill-rule="nonzero"/><path fill="#fff2cc" d="m642.6667 193.30989l0 0c0 -4.783676 3.8779297 -8.661591 8.66156 -8.661591l114.55084 0c2.2971802 0 4.500305 0.9125519 6.124695 2.536911c1.6243286 1.6243744 2.5369263 3.8274841 2.5369263 6.1246796l0 34.64531c0 4.783676 -3.8779297 8.661591 -8.661621 8.661591l-114.55084 0l0 0c-4.7836304 0 -8.66156 -3.8779144 -8.66156 -8.661591z" fill-rule="evenodd"/><path stroke="#666666" stroke-width="1.0" stroke-linejoin="round" stroke-linecap="butt" d="m642.6667 193.30989l0 0c0 -4.783676 3.8779297 -8.661591 8.66156 -8.661591l114.55084 0c2.2971802 0 4.500305 0.9125519 6.124695 2.536911c1.6243286 1.6243744 2.5369263 3.8274841 2.5369263 6.1246796l0 34.64531c0 4.783676 -3.8779297 8.661591 -8.661621 8.661591l-114.55084 0l0 0c-4.7836304 0 -8.66156 -3.8779144 -8.66156 -8.661591z" fill-rule="evenodd"/><path fill="#000000" d="m705.1193 203.47443l-11.96875 0q-0.515625 0 -0.515625 0.484375q-0.03125 0.46875 0.5 0.46875l5.4375 0l0 0.921875q0 1.984375 -1.828125 3.703125q-1.8125 1.734375 -4.1875 2.046875q-0.296875 0.03125 -0.453125 0.234375q-0.125 0.1875 -0.09375 0.40625q0.046875 0.234375 0.234375 0.359375q0.1875 0.140625 0.484375 0.109375q2.1875 -0.390625 4.125 -1.9375q1.71875 -1.359375 2.25 -2.75q0.5 1.34375 2.265625 2.71875q1.96875 1.578125 4.171875 1.96875q0.265625 0.03125 0.453125 -0.109375q0.15625 -0.125 0.203125 -0.359375q0.03125 -0.203125 -0.078125 -0.390625q-0.125 -0.1875 -0.390625 -0.21875q-2.46875 -0.375 -4.28125 -2.09375q-1.8125 -1.703125 -1.8125 -3.6875l0 -0.921875l5.484375 0q0.453125 0 0.453125 -0.46875q0 -0.484375 -0.453125 -0.484375zm-6.546875 8.953125l0 3.84375l-6.671875 0q-0.25 0 -0.40625 0.125q-0.125 0.15625 -0.140625 0.34375q-0.03125 0.1875 0.09375 0.328125q0.109375 0.15625 0.3125 0.15625l14.5625 0q0.234375 0 0.390625 -0.15625q0.140625 -0.140625 0.140625 -0.328125q0 -0.1875 -0.140625 -0.34375q-0.15625 -0.125 -0.40625 -0.125l-6.671875 0l0 -3.765625q0 -0.265625 -0.171875 -0.40625q-0.15625 -0.15625 -0.359375 -0.15625q-0.21875 -0.015625 -0.375 0.109375q-0.15625 0.140625 -0.15625 0.375zm18.359375 -8.890625l-5.5625 0q-0.515625 0 -0.5 0.46875q0 0.484375 0.515625 0.484375l5.5625 0q0.421875 0 0.625 0.1875q0.21875 0.1875 0.21875 0.578125l0 0.90625q0 2.15625 -1.75 3.578125q-1.8125 1.484375 -4.953125 1.703125q-0.28125 0 -0.4375 0.15625q-0.140625 0.140625 -0.109375 0.328125q0.015625 0.203125 0.15625 0.34375q0.171875 0.125 0.453125 0.125q3.453125 -0.21875 5.59375 -2.0q2.109375 -1.734375 2.109375 -4.21875l0 -1.0q0 -0.78125 -0.53125 -1.203125q-0.515625 -0.4375 -1.390625 -0.4375zm7.140625 10.171875l0 -10.171875q0 -0.265625 -0.171875 -0.421875q-0.15625 -0.125 -0.375 -0.125q-0.25 0 -0.390625 0.125q-0.171875 0.15625 -0.171875 0.421875l0 4.234375l-3.4375 0q-0.25 0 -0.40625 0.125q-0.140625 0.15625 -0.125 0.34375q0 0.1875 0.171875 0.328125q0.15625 0.15625 0.453125 0.15625l3.34375 0l0 4.984375q0 0.28125 0.171875 0.453125q0.140625 0.140625 0.390625 0.140625q0.21875 0 0.375 -0.140625q0.171875 -0.171875 0.171875 -0.453125zm-10.8125 0.21875q0 -0.296875 -0.1875 -0.453125q-0.140625 -0.15625 -0.375 -0.15625q-0.234375 0 -0.375 0.15625q-0.171875 0.15625 -0.171875 0.453125l0 2.46875q0 0.828125 0.515625 1.25q0.484375 0.40625 1.3125 0.40625l10.1875 0q0.46875 0 0.46875 -0.484375q0 -0.46875 -0.46875 -0.46875l-10.0 0q-0.53125 0 -0.71875 -0.15625q-0.1875 -0.1875 -0.1875 -0.6875l0 -2.328125z" fill-rule="nonzero"/><path fill="#fff2cc" d="m541.1627 295.63797l0 0c0 -4.783661 3.8779297 -8.661591 8.661621 -8.661591l114.55084 0c2.2971802 0 4.500305 0.91256714 6.124634 2.5369263c1.6243896 1.6243591 2.5369263 3.8274536 2.5369263 6.1246643l0 34.645325c0 4.783661 -3.8779297 8.661591 -8.66156 8.661591l-114.55084 0l0 0c-4.7836914 0 -8.661621 -3.8779297 -8.661621 -8.661591z" fill-rule="evenodd"/><path stroke="#666666" stroke-width="1.0" stroke-linejoin="round" stroke-linecap="butt" d="m541.1627 295.63797l0 0c0 -4.783661 3.8779297 -8.661591 8.661621 -8.661591l114.55084 0c2.2971802 0 4.500305 0.91256714 6.124634 2.5369263c1.6243896 1.6243591 2.5369263 3.8274536 2.5369263 6.1246643l0 34.645325c0 4.783661 -3.8779297 8.661591 -8.66156 8.661591l-114.55084 0l0 0c-4.7836914 0 -8.661621 -3.8779297 -8.661621 -8.661591z" fill-rule="evenodd"/><path fill="#000000" d="m586.4765 306.14624q0 1.359375 -0.9375 3.109375q-1.15625 2.078125 -3.109375 3.4375q-0.25 0.15625 -0.296875 0.375q-0.03125 0.203125 0.09375 0.375q0.109375 0.171875 0.328125 0.203125q0.21875 0.03125 0.4375 -0.109375q1.375 -1.0625 2.296875 -2.15625q0.734375 -0.875 1.5 -2.1875q1.25 0.6875 2.265625 1.625q0.96875 0.921875 1.890625 2.21875q0.171875 0.21875 0.421875 0.25q0.203125 0.03125 0.390625 -0.09375q0.15625 -0.125 0.203125 -0.34375q0.015625 -0.25 -0.15625 -0.484375q-1.09375 -1.421875 -2.0 -2.265625q-1.09375 -0.984375 -2.671875 -1.828125l0.03125 -0.171875q0.203125 -0.578125 0.28125 -0.890625q0.125 -0.515625 0.125 -1.0625q0 -0.28125 -0.1875 -0.421875q-0.140625 -0.125 -0.359375 -0.125q-0.234375 0 -0.375 0.125q-0.171875 0.140625 -0.171875 0.421875zm9.3125 6.71875l0 -7.0625q0 -0.25 -0.171875 -0.375q-0.15625 -0.125 -0.375 -0.125q-0.25 0 -0.390625 0.125q-0.171875 0.140625 -0.171875 0.390625l0 7.046875q0 0.25 0.171875 0.390625q0.140625 0.125 0.390625 0.125q0.21875 0 0.375 -0.125q0.171875 -0.140625 0.171875 -0.390625zm-1.6875 1.515625l-9.84375 0q-0.578125 0 -0.5625 0.46875q0 0.484375 0.5625 0.484375l9.703125 0q0.390625 0 0.546875 0.125q0.171875 0.140625 0.171875 0.46875l0 0.5q0 0.265625 -0.203125 0.375q-0.171875 0.109375 -0.5 0.109375l-8.828125 0q-0.609375 0 -1.0 0.359375q-0.390625 0.34375 -0.390625 0.953125l0 1.078125q0 0.59375 0.40625 0.96875q0.390625 0.359375 1.015625 0.359375l10.59375 0q0.25 0 0.375 -0.15625q0.125 -0.140625 0.125 -0.328125q-0.015625 -0.1875 -0.140625 -0.34375q-0.171875 -0.125 -0.4375 -0.125l-10.203125 0q-0.328125 0 -0.484375 -0.109375q-0.15625 -0.109375 -0.15625 -0.390625l0 -0.71875q0 -0.296875 0.125 -0.453125q0.171875 -0.140625 0.546875 -0.140625l8.78125 0q0.671875 0 1.078125 -0.359375q0.40625 -0.359375 0.40625 -0.921875l0 -0.796875q0 -0.65625 -0.421875 -1.03125q-0.4375 -0.375 -1.265625 -0.375zm14.875 -6.703125l-7.203125 0q-0.515625 0 -0.515625 0.453125q0 0.484375 0.515625 0.484375l7.265625 0q0.25 0 0.375 -0.140625q0.125 -0.15625 0.125 -0.34375q-0.015625 -0.1875 -0.140625 -0.328125q-0.171875 -0.125 -0.421875 -0.125zm-1.84375 -2.15625l-3.4375 0q-0.53125 0 -0.53125 0.46875q0 0.46875 0.53125 0.46875l3.453125 0q0.515625 0 0.515625 -0.46875q0 -0.46875 -0.53125 -0.46875zm-1.703125 3.9375q-1.671875 0 -2.65625 0.765625q-0.875 0.71875 -0.875 1.75q0 1.0 0.875 1.703125q0.984375 0.796875 2.65625 0.796875q1.625 0 2.59375 -0.796875q0.875 -0.703125 0.875 -1.703125q0 -1.03125 -0.875 -1.75q-0.953125 -0.765625 -2.59375 -0.765625zm0 0.921875q1.171875 0 1.8125 0.484375q0.59375 0.4375 0.59375 1.109375q0 0.65625 -0.59375 1.0625q-0.640625 0.484375 -1.8125 0.484375q-1.203125 0 -1.859375 -0.484375q-0.578125 -0.40625 -0.578125 -1.0625q0 -0.671875 0.578125 -1.109375q0.65625 -0.484375 1.859375 -0.484375zm8.796875 -4.546875l0 4.25l-2.671875 0l0 -4.3125q0 -0.46875 -0.5625 -0.46875q-0.53125 0 -0.53125 0.46875l0 8.0625q0 0.25 0.15625 0.40625q0.15625 0.140625 0.375 0.140625q0.21875 0 0.375 -0.140625q0.1875 -0.15625 0.1875 -0.40625l0 -2.828125l2.671875 0l0 3.265625q0 0.296875 0.15625 0.46875q0.15625 0.171875 0.375 0.171875q0.203125 0 0.359375 -0.171875q0.171875 -0.1875 0.171875 -0.484375l0 -8.40625q0 -0.53125 -0.53125 -0.53125q-0.53125 0 -0.53125 0.515625zm-5.015625 9.78125q-3.203125 0 -4.90625 0.765625q-1.484375 0.703125 -1.484375 1.859375q0 1.15625 1.484375 1.84375q1.671875 0.78125 4.90625 0.78125q3.25 0 4.9375 -0.78125q1.515625 -0.6875 1.515625 -1.84375q0 -1.15625 -1.515625 -1.859375q-1.6875 -0.765625 -4.9375 -0.765625zm0 0.96875q2.75 0 4.09375 0.453125q1.25 0.40625 1.25 1.203125q0 0.765625 -1.25 1.1875q-1.34375 0.484375 -4.09375 0.484375q-2.703125 0 -4.0625 -0.484375q-1.203125 -0.421875 -1.203125 -1.1875q0 -0.796875 1.203125 -1.203125q1.328125 -0.453125 4.0625 -0.453125z" fill-rule="nonzero"/><path fill="#000000" d="m630.45667 319.8806l-1.640625 0l0 -10.453125q-0.59375 0.5625 -1.5625 1.140625q-0.953125 0.5625 -1.71875 0.84375l0 -1.59375q1.375 -0.640625 2.40625 -1.5625q1.03125 -0.921875 1.453125 -1.78125l1.0625 0l0 13.40625z" fill-rule="nonzero"/><path fill="#fff2cc" d="m758.55383 295.63797l0 0c0 -4.783661 3.8778687 -8.661591 8.66156 -8.661591l114.55084 0c2.2971802 0 4.500305 0.91256714 6.124695 2.5369263c1.6243286 1.6243591 2.5368652 3.8274536 2.5368652 6.1246643l0 34.645325c0 4.783661 -3.8779297 8.661591 -8.66156 8.661591l-114.55084 0l0 0c-4.7836914 0 -8.66156 -3.8779297 -8.66156 -8.661591z" fill-rule="evenodd"/><path stroke="#666666" stroke-width="1.0" stroke-linejoin="round" stroke-linecap="butt" d="m758.55383 295.63797l0 0c0 -4.783661 3.8778687 -8.661591 8.66156 -8.661591l114.55084 0c2.2971802 0 4.500305 0.91256714 6.124695 2.5369263c1.6243286 1.6243591 2.5368652 3.8274536 2.5368652 6.1246643l0 34.645325c0 4.783661 -3.8779297 8.661591 -8.66156 8.661591l-114.55084 0l0 0c-4.7836914 0 -8.66156 -3.8779297 -8.66156 -8.661591z" fill-rule="evenodd"/><path fill="#000000" d="m803.86755 306.14624q0 1.359375 -0.9375 3.109375q-1.15625 2.078125 -3.109375 3.4375q-0.25 0.15625 -0.296875 0.375q-0.03125 0.203125 0.09375 0.375q0.109375 0.171875 0.328125 0.203125q0.21875 0.03125 0.4375 -0.109375q1.375 -1.0625 2.296875 -2.15625q0.734375 -0.875 1.5 -2.1875q1.25 0.6875 2.265625 1.625q0.96875 0.921875 1.890625 2.21875q0.171875 0.21875 0.421875 0.25q0.203125 0.03125 0.390625 -0.09375q0.15625 -0.125 0.203125 -0.34375q0.015625 -0.25 -0.15625 -0.484375q-1.09375 -1.421875 -2.0 -2.265625q-1.09375 -0.984375 -2.671875 -1.828125l0.03125 -0.171875q0.203125 -0.578125 0.28125 -0.890625q0.125 -0.515625 0.125 -1.0625q0 -0.28125 -0.1875 -0.421875q-0.140625 -0.125 -0.359375 -0.125q-0.234375 0 -0.375 0.125q-0.171875 0.140625 -0.171875 0.421875zm9.3125 6.71875l0 -7.0625q0 -0.25 -0.171875 -0.375q-0.15625 -0.125 -0.375 -0.125q-0.25 0 -0.390625 0.125q-0.171875 0.140625 -0.171875 0.390625l0 7.046875q0 0.25 0.171875 0.390625q0.140625 0.125 0.390625 0.125q0.21875 0 0.375 -0.125q0.171875 -0.140625 0.171875 -0.390625zm-1.6875 1.515625l-9.84375 0q-0.578125 0 -0.5625 0.46875q0 0.484375 0.5625 0.484375l9.703125 0q0.390625 0 0.546875 0.125q0.171875 0.140625 0.171875 0.46875l0 0.5q0 0.265625 -0.203125 0.375q-0.171875 0.109375 -0.5 0.109375l-8.828125 0q-0.609375 0 -1.0 0.359375q-0.390625 0.34375 -0.390625 0.953125l0 1.078125q0 0.59375 0.40625 0.96875q0.390625 0.359375 1.015625 0.359375l10.59375 0q0.25 0 0.375 -0.15625q0.125 -0.140625 0.125 -0.328125q-0.015625 -0.1875 -0.140625 -0.34375q-0.171875 -0.125 -0.4375 -0.125l-10.203125 0q-0.328125 0 -0.484375 -0.109375q-0.15625 -0.109375 -0.15625 -0.390625l0 -0.71875q0 -0.296875 0.125 -0.453125q0.171875 -0.140625 0.546875 -0.140625l8.78125 0q0.671875 0 1.078125 -0.359375q0.40625 -0.359375 0.40625 -0.921875l0 -0.796875q0 -0.65625 -0.421875 -1.03125q-0.4375 -0.375 -1.265625 -0.375zm14.875 -6.703125l-7.203125 0q-0.515625 0 -0.515625 0.453125q0 0.484375 0.515625 0.484375l7.265625 0q0.25 0 0.375 -0.140625q0.125 -0.15625 0.125 -0.34375q-0.015625 -0.1875 -0.140625 -0.328125q-0.171875 -0.125 -0.421875 -0.125zm-1.84375 -2.15625l-3.4375 0q-0.53125 0 -0.53125 0.46875q0 0.46875 0.53125 0.46875l3.453125 0q0.515625 0 0.515625 -0.46875q0 -0.46875 -0.53125 -0.46875zm-1.703125 3.9375q-1.671875 0 -2.65625 0.765625q-0.875 0.71875 -0.875 1.75q0 1.0 0.875 1.703125q0.984375 0.796875 2.65625 0.796875q1.625 0 2.59375 -0.796875q0.875 -0.703125 0.875 -1.703125q0 -1.03125 -0.875 -1.75q-0.953125 -0.765625 -2.59375 -0.765625zm0 0.921875q1.171875 0 1.8125 0.484375q0.59375 0.4375 0.59375 1.109375q0 0.65625 -0.59375 1.0625q-0.640625 0.484375 -1.8125 0.484375q-1.203125 0 -1.859375 -0.484375q-0.578125 -0.40625 -0.578125 -1.0625q0 -0.671875 0.578125 -1.109375q0.65625 -0.484375 1.859375 -0.484375zm8.796875 -4.546875l0 4.25l-2.671875 0l0 -4.3125q0 -0.46875 -0.5625 -0.46875q-0.53125 0 -0.53125 0.46875l0 8.0625q0 0.25 0.15625 0.40625q0.15625 0.140625 0.375 0.140625q0.21875 0 0.375 -0.140625q0.1875 -0.15625 0.1875 -0.40625l0 -2.828125l2.671875 0l0 3.265625q0 0.296875 0.15625 0.46875q0.15625 0.171875 0.375 0.171875q0.203125 0 0.359375 -0.171875q0.171875 -0.1875 0.171875 -0.484375l0 -8.40625q0 -0.53125 -0.53125 -0.53125q-0.53125 0 -0.53125 0.515625zm-5.015625 9.78125q-3.203125 0 -4.90625 0.765625q-1.484375 0.703125 -1.484375 1.859375q0 1.15625 1.484375 1.84375q1.671875 0.78125 4.90625 0.78125q3.25 0 4.9375 -0.78125q1.515625 -0.6875 1.515625 -1.84375q0 -1.15625 -1.515625 -1.859375q-1.6875 -0.765625 -4.9375 -0.765625zm0 0.96875q2.75 0 4.09375 0.453125q1.25 0.40625 1.25 1.203125q0 0.765625 -1.25 1.1875q-1.34375 0.484375 -4.09375 0.484375q-2.703125 0 -4.0625 -0.484375q-1.203125 -0.421875 -1.203125 -1.1875q0 -0.796875 1.203125 -1.203125q1.328125 -0.453125 4.0625 -0.453125z" fill-rule="nonzero"/><path fill="#000000" d="m850.2852 318.3025l0 1.578125l-8.828125 0q-0.015625 -0.59375 0.1875 -1.140625q0.34375 -0.90625 1.078125 -1.78125q0.75 -0.875 2.15625 -2.015625q2.171875 -1.78125 2.9375 -2.828125q0.765625 -1.046875 0.765625 -1.96875q0 -0.984375 -0.703125 -1.640625q-0.6875 -0.671875 -1.8125 -0.671875q-1.1875 0 -1.90625 0.71875q-0.703125 0.703125 -0.703125 1.953125l-1.6875 -0.171875q0.171875 -1.890625 1.296875 -2.875q1.140625 -0.984375 3.03125 -0.984375q1.921875 0 3.046875 1.0625q1.125 1.0625 1.125 2.640625q0 0.796875 -0.328125 1.578125q-0.328125 0.78125 -1.09375 1.640625q-0.75 0.84375 -2.53125 2.34375q-1.46875 1.234375 -1.890625 1.6875q-0.421875 0.4375 -0.6875 0.875l6.546875 0z" fill-rule="nonzero"/><path fill="#000000" fill-opacity="0.0" d="m708.6037 236.61679c0 12.589798 28.968506 18.884323 57.93701 25.179596c28.968506 6.295288 57.93695 12.591309 57.93695 25.182617" fill-rule="evenodd"/><path stroke="#595959" stroke-width="1.0" stroke-linejoin="round" stroke-linecap="butt" d="m708.6037 236.61679c0 12.589798 28.968506 18.884323 57.93701 25.179596c14.484253 3.147644 28.968506 6.295471 39.831665 10.230286c5.4315796 1.9674072 9.957947 4.131592 13.126282 6.590851c1.5842896 1.2296448 2.8290405 2.5330505 3.6776733 3.9225464c0.21221924 0.34735107 0.39959717 0.70010376 0.5614624 1.0584412l0.013427734 0.031280518" fill-rule="evenodd"/><path fill="#595959" stroke="#595959" stroke-width="1.0" stroke-linecap="butt" d="m823.7513 283.6298l-1.3374023 -0.86065674l1.7539062 2.781189l0.44415283 -3.2579346z" fill-rule="evenodd"/><path fill="#000000" fill-opacity="0.0" d="m708.6037 236.61679c0 12.589798 -25.37799 18.884323 -50.75592 25.179596c-25.37799 6.295288 -50.75592 12.591309 -50.75592 25.182617" fill-rule="evenodd"/><path stroke="#595959" stroke-width="1.0" stroke-linejoin="round" stroke-linecap="butt" d="m708.6037 236.61679c0 12.589798 -25.37799 18.884323 -50.75592 25.179596c-12.688965 3.147644 -25.37799 6.295471 -34.894714 10.230286c-4.758362 1.9674072 -8.723633 4.131592 -11.49939 6.590851c-1.3878174 1.2296448 -2.4782715 2.5330505 -3.2218018 3.9225464c-0.18585205 0.34735107 -0.35003662 0.70010376 -0.49176025 1.0584412l-0.005432129 0.014221191" fill-rule="evenodd"/><path fill="#595959" stroke="#595959" stroke-width="1.0" stroke-linecap="butt" d="m607.7347 283.61276l-0.89367676 -1.3155823l0.52508545 3.2458801l1.6842041 -2.8239746z" fill-rule="evenodd"/><path fill="#fff2cc" d="m520.4042 186.7486l0 0c0 -2.1338043 1.7297974 -3.8636017 3.8636475 -3.8636017l52.178284 0c1.0247192 0 2.0074463 0.40705872 2.7319946 1.1316223c0.72454834 0.7245636 1.1315918 1.7072906 1.1315918 2.7319794l0 15.453918c0 2.1338043 -1.7297974 3.8635864 -3.8635864 3.8635864l-52.178284 0l0 0c-2.13385 0 -3.8636475 -1.7297821 -3.8636475 -3.8635864z" fill-rule="evenodd"/><path stroke="#666666" stroke-width="1.0" stroke-linejoin="round" stroke-linecap="butt" d="m520.4042 186.7486l0 0c0 -2.1338043 1.7297974 -3.8636017 3.8636475 -3.8636017l52.178284 0c1.0247192 0 2.0074463 0.40705872 2.7319946 1.1316223c0.72454834 0.7245636 1.1315918 1.7072906 1.1315918 2.7319794l0 15.453918c0 2.1338043 -1.7297974 3.8635864 -3.8635864 3.8635864l-52.178284 0l0 0c-2.13385 0 -3.8636475 -1.7297821 -3.8636475 -3.8635864z" fill-rule="evenodd"/><path fill="#000000" d="m536.01794 189.88492q0 0.921875 -0.65625 2.109375q-0.78125 1.421875 -2.109375 2.375q-0.1875 0.09375 -0.203125 0.25q-0.03125 0.140625 0.0625 0.25q0.078125 0.109375 0.21875 0.140625q0.140625 0.03125 0.296875 -0.078125q0.9375 -0.71875 1.578125 -1.46875q0.484375 -0.59375 1.03125 -1.5q0.84375 0.46875 1.546875 1.109375q0.65625 0.625 1.296875 1.515625q0.109375 0.15625 0.265625 0.1875q0.140625 0 0.28125 -0.078125q0.109375 -0.078125 0.125 -0.234375q0.015625 -0.171875 -0.09375 -0.328125q-0.75 -0.984375 -1.375 -1.546875q-0.75 -0.671875 -1.828125 -1.265625l0.03125 -0.109375q0.140625 -0.390625 0.1875 -0.609375q0.09375 -0.359375 0.09375 -0.71875q0 -0.1875 -0.125 -0.296875q-0.109375 -0.09375 -0.265625 -0.09375q-0.140625 0 -0.25 0.09375q-0.109375 0.109375 -0.109375 0.296875zm6.375 4.59375l0 -4.84375q0 -0.15625 -0.125 -0.25q-0.109375 -0.09375 -0.265625 -0.09375q-0.15625 0 -0.265625 0.09375q-0.109375 0.109375 -0.109375 0.265625l0 4.828125q0 0.15625 0.109375 0.265625q0.109375 0.09375 0.265625 0.09375q0.15625 0 0.265625 -0.09375q0.125 -0.109375 0.125 -0.265625zm-1.15625 1.03125l-6.75 0q-0.390625 0 -0.375 0.328125q0 0.328125 0.375 0.328125l6.640625 0q0.265625 0 0.390625 0.09375q0.109375 0.078125 0.109375 0.3125l0 0.34375q0 0.171875 -0.140625 0.25q-0.109375 0.078125 -0.34375 0.078125l-6.046875 0q-0.421875 0 -0.6875 0.234375q-0.265625 0.25 -0.265625 0.671875l0 0.734375q0 0.40625 0.28125 0.65625q0.265625 0.25 0.703125 0.25l7.25 0q0.15625 0 0.25 -0.109375q0.09375 -0.09375 0.09375 -0.234375q-0.015625 -0.125 -0.109375 -0.21875q-0.109375 -0.09375 -0.28125 -0.09375l-6.984375 0q-0.234375 0 -0.328125 -0.078125q-0.125 -0.078125 -0.125 -0.265625l0 -0.5q0 -0.203125 0.09375 -0.296875q0.109375 -0.109375 0.375 -0.109375l6.015625 0q0.453125 0 0.734375 -0.234375q0.28125 -0.234375 0.28125 -0.640625l0 -0.546875q0 -0.4375 -0.296875 -0.6875q-0.3125 -0.265625 -0.859375 -0.265625zm10.171875 -4.59375l-4.9375 0q-0.34375 0 -0.34375 0.328125q0 0.328125 0.34375 0.328125l4.984375 0q0.15625 0 0.25 -0.109375q0.09375 -0.09375 0.09375 -0.21875q-0.015625 -0.125 -0.109375 -0.234375q-0.109375 -0.09375 -0.28125 -0.09375zm-1.265625 -1.46875l-2.34375 0q-0.375 0 -0.375 0.3125q0 0.34375 0.375 0.34375l2.359375 0q0.359375 0 0.359375 -0.34375q0 -0.3125 -0.375 -0.3125zm-1.171875 2.6875q-1.140625 0 -1.8125 0.53125q-0.59375 0.484375 -0.59375 1.203125q0 0.6875 0.59375 1.171875q0.671875 0.546875 1.8125 0.546875q1.125 0 1.78125 -0.546875q0.59375 -0.484375 0.59375 -1.171875q0 -0.71875 -0.59375 -1.203125q-0.640625 -0.53125 -1.78125 -0.53125zm0 0.640625q0.8125 0 1.25 0.328125q0.40625 0.3125 0.40625 0.765625q0 0.4375 -0.40625 0.71875q-0.4375 0.328125 -1.25 0.328125q-0.8125 0 -1.265625 -0.328125q-0.390625 -0.28125 -0.390625 -0.71875q0 -0.453125 0.390625 -0.765625q0.453125 -0.328125 1.265625 -0.328125zm6.015625 -3.109375l0 2.90625l-1.828125 0l0 -2.953125q0 -0.328125 -0.375 -0.328125q-0.359375 0 -0.359375 0.328125l0 5.515625q0 0.171875 0.109375 0.28125q0.09375 0.09375 0.25 0.09375q0.15625 0 0.25 -0.09375q0.125 -0.109375 0.125 -0.28125l0 -1.921875l1.828125 0l0 2.234375q0 0.203125 0.125 0.3125q0.09375 0.109375 0.25 0.109375q0.140625 0 0.234375 -0.109375q0.140625 -0.125 0.140625 -0.328125l0 -5.75q0 -0.375 -0.375 -0.375q-0.375 0 -0.375 0.359375zm-3.421875 6.6875q-2.1875 0 -3.34375 0.515625q-1.015625 0.484375 -1.015625 1.28125q0 0.796875 1.015625 1.265625q1.140625 0.53125 3.34375 0.53125q2.21875 0 3.375 -0.53125q1.046875 -0.46875 1.046875 -1.265625q0 -0.796875 -1.046875 -1.28125q-1.15625 -0.515625 -3.375 -0.515625zm0 0.65625q1.875 0 2.8125 0.328125q0.84375 0.28125 0.84375 0.8125q0 0.53125 -0.84375 0.8125q-0.9375 0.34375 -2.8125 0.34375q-1.859375 0 -2.78125 -0.34375q-0.828125 -0.28125 -0.828125 -0.8125q0 -0.53125 0.828125 -0.8125q0.921875 -0.328125 2.78125 -0.328125z" fill-rule="nonzero"/><path fill="#000000" d="m568.2053 198.15054l0 1.125l-6.296875 0q-0.015625 -0.421875 0.140625 -0.8125q0.234375 -0.640625 0.765625 -1.265625q0.53125 -0.625 1.53125 -1.453125q1.5625 -1.265625 2.109375 -2.015625q0.546875 -0.75 0.546875 -1.40625q0 -0.703125 -0.5 -1.171875q-0.5 -0.484375 -1.296875 -0.484375q-0.859375 0 -1.375 0.515625q-0.5 0.5 -0.5 1.390625l-1.203125 -0.109375q0.125 -1.359375 0.921875 -2.0625q0.8125 -0.703125 2.171875 -0.703125q1.375 0 2.171875 0.765625q0.8125 0.75 0.8125 1.875q0 0.578125 -0.234375 1.140625q-0.234375 0.546875 -0.78125 1.15625q-0.546875 0.609375 -1.8125 1.671875q-1.046875 0.890625 -1.359375 1.21875q-0.296875 0.3125 -0.484375 0.625l4.671875 0z" fill-rule="nonzero"/><path fill="#000000" fill-opacity="0.0" d="m536.33594 236.61679l159.08661 0l0 53.700806l-159.08661 0z" fill-rule="evenodd"/><path fill="#000000" d="m555.9453 248.77617l-8.1875 0q-0.359375 0 -0.359375 0.328125q0 0.34375 0.34375 0.34375l3.71875 0l0 0.609375q0 1.359375 -1.234375 2.546875q-1.25 1.171875 -2.875 1.390625q-0.203125 0.03125 -0.296875 0.171875q-0.09375 0.125 -0.0625 0.28125q0.015625 0.140625 0.140625 0.234375q0.140625 0.109375 0.34375 0.078125q1.484375 -0.265625 2.828125 -1.328125q1.15625 -0.9375 1.53125 -1.890625q0.34375 0.9375 1.546875 1.875q1.34375 1.078125 2.859375 1.34375q0.171875 0.03125 0.296875 -0.078125q0.125 -0.09375 0.140625 -0.234375q0.03125 -0.140625 -0.046875 -0.265625q-0.09375 -0.140625 -0.265625 -0.15625q-1.6875 -0.25 -2.9375 -1.4375q-1.21875 -1.171875 -1.21875 -2.53125l0 -0.609375l3.734375 0q0.328125 0 0.328125 -0.34375q0 -0.328125 -0.328125 -0.328125zm-4.484375 6.140625l0 2.6250153l-4.546875 0q-0.1875 0 -0.28125 0.09375q-0.09375 0.09375 -0.109375 0.21875q0 0.125 0.0625 0.234375q0.078125 0.09375 0.21875 0.09375l9.96875 0q0.171875 0 0.265625 -0.09375q0.109375 -0.109375 0.109375 -0.234375q0 -0.125 -0.109375 -0.21875q-0.09375 -0.09375 -0.28125 -0.09375l-4.546875 0l0 -2.5781403q0 -0.171875 -0.140625 -0.28125q-0.09375 -0.09375 -0.234375 -0.09375q-0.15625 -0.015625 -0.25 0.0625q-0.125 0.09375 -0.125 0.265625zm12.578125 -6.078125l-3.8125 0q-0.359375 0 -0.34375 0.3125q0 0.328125 0.359375 0.328125l3.8125 0q0.28125 0 0.40625 0.125q0.15625 0.125 0.15625 0.390625l0 0.625q0 1.46875 -1.1875 2.453125q-1.25 1.015625 -3.390625 1.171875q-0.1875 0 -0.3125 0.09375q-0.078125 0.109375 -0.0625 0.234375q0 0.140625 0.109375 0.21875q0.109375 0.09375 0.296875 0.09375q2.359375 -0.15625 3.84375 -1.375q1.4375 -1.171875 1.4375 -2.875l0 -0.6875q0 -0.53125 -0.359375 -0.828125q-0.359375 -0.28125 -0.953125 -0.28125zm4.890625 6.953125l0 -6.953125q0 -0.203125 -0.125 -0.296875q-0.109375 -0.09375 -0.265625 -0.09375q-0.15625 0 -0.265625 0.09375q-0.109375 0.09375 -0.109375 0.296875l0 2.890625l-2.34375 0q-0.1875 0 -0.28125 0.078125q-0.109375 0.109375 -0.09375 0.234375q0 0.125 0.109375 0.234375q0.125 0.09375 0.328125 0.09375l2.28125 0l0 3.421875q0 0.1875 0.109375 0.29689026q0.109375 0.109375 0.265625 0.109375q0.15625 0 0.265625 -0.109375q0.125 -0.10939026 0.125 -0.29689026zm-7.40625 0.15625q0 -0.203125 -0.125 -0.328125q-0.109375 -0.09375 -0.25 -0.09375q-0.171875 0 -0.265625 0.09375q-0.125 0.125 -0.125 0.328125l0 1.6875153q0 0.546875 0.359375 0.84375q0.328125 0.28125 0.90625 0.28125l6.96875 0q0.3125 0 0.3125 -0.328125q0 -0.328125 -0.3125 -0.328125l-6.84375 0q-0.375 0 -0.5 -0.109375q-0.125 -0.125 -0.125 -0.46875l0 -1.5781403zm14.34375 -7.1875q-1.390625 0 -2.1875 1.421875q-0.734375 1.296875 -0.734375 3.25q0 1.921875 0.734375 3.2031403q0.796875 1.421875 2.1875 1.421875q1.375 0 2.15625 -1.421875q0.734375 -1.2812653 0.734375 -3.2031403q0 -1.953125 -0.734375 -3.25q-0.78125 -1.421875 -2.15625 -1.421875zm0 0.65625q1.015625 0 1.59375 1.203125q0.546875 1.109375 0.546875 2.8125q0 1.65625 -0.546875 2.7812653q-0.578125 1.21875 -1.59375 1.21875q-1.046875 0 -1.625 -1.21875q-0.53125 -1.1250153 -0.53125 -2.7812653q0 -1.703125 0.53125 -2.8125q0.578125 -1.203125 1.625 -1.203125zm6.0625 9.250015l0 -9.875015q0 -0.15625 -0.125 -0.265625q-0.109375 -0.078125 -0.265625 -0.078125q-0.15625 0 -0.265625 0.078125q-0.109375 0.109375 -0.109375 0.265625l0 9.875015q0 0.1875 0.109375 0.296875q0.109375 0.09375 0.265625 0.09375q0.15625 0 0.265625 -0.09375q0.125 -0.109375 0.125 -0.296875z" fill-rule="nonzero"/><path fill="#000000" d="m594.3983 249.93242l0 2.859375q0 0.296875 -0.140625 0.40625q-0.125 0.109375 -0.421875 0.109375l-2.71875 0q-0.328125 0 -0.4375 -0.109375q-0.125 -0.09375 -0.125 -0.375l0 -2.828125q0 -0.328125 0.109375 -0.46875q0.125 -0.140625 0.4375 -0.140625l2.703125 0q0.328125 0 0.46875 0.140625q0.125 0.125 0.125 0.40625zm-0.390625 -1.1875l-3.078125 0q-0.515625 0 -0.828125 0.328125q-0.296875 0.296875 -0.296875 0.765625l0 3.109375q0 0.453125 0.296875 0.734375q0.28125 0.265625 0.78125 0.265625l3.078125 0q0.53125 0 0.84375 -0.265625q0.328125 -0.28125 0.328125 -0.734375l0 -3.1875q0 -0.46875 -0.296875 -0.75q-0.3125 -0.265625 -0.828125 -0.265625zm4.25 2.765625l0 -2.734375q0 -0.34375 -0.375 -0.34375q-0.375 0 -0.375 0.34375l0 5.09375q0 0.171875 0.109375 0.28125q0.109375 0.09375 0.265625 0.09375q0.140625 0 0.25 -0.09375q0.125 -0.109375 0.125 -0.28125l0 -1.71875l1.390625 0q0.328125 0 0.328125 -0.328125q0 -0.3125 -0.328125 -0.3125l-1.390625 0zm0.078125 3.640625l-7.75 0q-0.390625 0 -0.40625 0.3125q0 0.34375 0.34375 0.34375l3.546875 0q-0.078125 0.96876526 -1.109375 1.7500153q-1.046875 0.765625 -2.484375 0.890625q-0.203125 0 -0.3125 0.109375q-0.109375 0.09375 -0.09375 0.234375q0.015625 0.140625 0.109375 0.21875q0.125 0.09375 0.328125 0.09375q1.46875 -0.125 2.59375 -0.828125q0.96875 -0.609375 1.34375 -1.390625q0.34375 0.78125 1.328125 1.390625q1.125 0.703125 2.609375 0.828125q0.1875 0.015625 0.3125 -0.09375q0.09375 -0.078125 0.109375 -0.21875q0 -0.140625 -0.09375 -0.234375q-0.109375 -0.109375 -0.296875 -0.109375q-1.453125 -0.125 -2.5 -0.890625q-1.046875 -0.78125 -1.125 -1.7500153l3.578125 0q0.34375 0 0.328125 -0.34375q0 -0.3125 -0.359375 -0.3125zm9.203125 -6.640625q-2.265625 0 -3.40625 0.484375q-1.03125 0.453125 -1.03125 1.265625q0 0.796875 1.03125 1.234375q1.140625 0.5 3.40625 0.5q2.265625 0 3.390625 -0.5q1.046875 -0.4375 1.046875 -1.234375q0 -0.8125 -1.046875 -1.265625q-1.125 -0.484375 -3.390625 -0.484375zm0 0.65625q1.921875 0 2.828125 0.28125q0.859375 0.265625 0.859375 0.8125q0 0.515625 -0.859375 0.78125q-0.890625 0.296875 -2.828125 0.296875q-1.9375 0 -2.84375 -0.296875q-0.84375 -0.265625 -0.84375 -0.78125q0 -0.546875 0.84375 -0.8125q0.921875 -0.28125 2.84375 -0.28125zm4.921875 4.0625l-9.84375 0q-0.375 0 -0.390625 0.296875q-0.015625 0.3125 0.328125 0.3125l9.9375 0q0.359375 0 0.359375 -0.3125q-0.015625 -0.296875 -0.390625 -0.296875zm-1.796875 1.671875l-7.046875 0q-0.375 0 -0.390625 0.3125q0 0.328125 0.375 0.328125l6.96875 0q0.265625 0 0.390625 0.09375q0.109375 0.109375 0.109375 0.3125l0 0.32814026q0 0.15625 -0.125 0.234375q-0.125 0.078125 -0.34375 0.078125l-6.375 0q-0.46875 0 -0.71875 0.234375q-0.265625 0.265625 -0.265625 0.671875l0 0.5625q0 0.390625 0.25 0.625q0.234375 0.25 0.671875 0.25l7.46875 0q0.15625 0 0.25 -0.109375q0.09375 -0.09375 0.09375 -0.234375q-0.015625 -0.125 -0.109375 -0.21875q-0.109375 -0.09375 -0.296875 -0.09375l-7.125 0q-0.234375 0 -0.328125 -0.078125q-0.109375 -0.078125 -0.109375 -0.265625l0 -0.296875q0 -0.203125 0.09375 -0.296875q0.09375 -0.109375 0.359375 -0.109375l6.4375 0q0.40625 0 0.671875 -0.265625q0.265625 -0.234375 0.265625 -0.609375l0 -0.60939026q0 -0.390625 -0.359375 -0.625q-0.328125 -0.21875 -0.8125 -0.21875zm9.15625 -6.15625l-3.890625 0q-0.359375 0 -0.34375 0.3125q0 0.328125 0.359375 0.328125l3.796875 0q0.265625 0 0.421875 0.125q0.15625 0.140625 0.15625 0.40625l0 0.546875q0 1.4375 -1.171875 2.234375q-1.171875 0.78125 -3.375 0.875q-0.203125 0 -0.3125 0.109375q-0.09375 0.09375 -0.09375 0.234375q0 0.125 0.125 0.203125q0.109375 0.09375 0.296875 0.09375q2.5 -0.109375 3.890625 -1.109375q1.375 -1.0 1.375 -2.625l0 -0.671875q0 -0.484375 -0.359375 -0.765625q-0.34375 -0.296875 -0.875 -0.296875zm4.8125 5.90625l0 -5.8125q0 -0.203125 -0.125 -0.296875q-0.109375 -0.09375 -0.265625 -0.09375q-0.15625 0 -0.265625 0.09375q-0.109375 0.09375 -0.109375 0.296875l0 1.21875l-2.1875 0q-0.1875 0 -0.296875 0.09375q-0.109375 0.109375 -0.109375 0.234375q0 0.125 0.109375 0.21875q0.109375 0.109375 0.296875 0.109375l2.1875 0l0 1.875l-2.1875 0q-0.1875 0 -0.296875 0.109375q-0.109375 0.078125 -0.109375 0.21875q0 0.125 0.109375 0.21875q0.109375 0.109375 0.296875 0.109375l2.1875 0l0 1.40625q0 0.15625 0.109375 0.265625q0.109375 0.078125 0.265625 0.078125q0.15625 0 0.265625 -0.078125q0.125 -0.109375 0.125 -0.265625zm-4.09375 0.328125q-2.0625 0 -3.1875 0.609375q-0.984375 0.56251526 -0.984375 1.4531403q0 0.859375 0.984375 1.421875q1.125 0.625 3.1875 0.625q2.0625 0 3.171875 -0.625q1.0 -0.546875 1.0 -1.421875q0 -0.890625 -1.0 -1.4531403q-1.109375 -0.609375 -3.171875 -0.609375zm0 0.625q1.71875 0 2.609375 0.42189026q0.828125 0.390625 0.828125 1.015625q0 0.59375 -0.828125 0.984375q-0.90625 0.421875 -2.609375 0.421875q-1.71875 0 -2.625 -0.421875q-0.8125 -0.390625 -0.8125 -0.984375q0 -0.625 0.8125 -1.015625q0.90625 -0.42189026 2.625 -0.42189026zm13.0 -6.984375q-2.203125 0 -3.359375 0.6875q-1.078125 0.609375 -1.078125 1.625q0 1.015625 1.078125 1.640625q1.171875 0.703125 3.359375 0.703125q2.171875 0 3.359375 -0.703125q1.078125 -0.625 1.078125 -1.640625q0 -1.015625 -1.078125 -1.625q-1.171875 -0.6875 -3.359375 -0.6875zm0 0.640625q1.8125 0 2.796875 0.484375q0.890625 0.4375 0.890625 1.1875q0 0.75 -0.890625 1.1875q-0.96875 0.5 -2.796875 0.5q-1.84375 0 -2.8125 -0.5q-0.875 -0.4375 -0.875 -1.1875q0 -0.75 0.875 -1.1875q0.984375 -0.484375 2.8125 -0.484375zm4.953125 5.375l-9.875 0q-0.359375 0 -0.375 0.3125q-0.015625 0.328125 0.328125 0.328125l4.59375 0l0 3.4062653q0 0.171875 0.125 0.296875q0.09375 0.078125 0.25 0.078125q0.140625 0 0.234375 -0.09375q0.140625 -0.109375 0.140625 -0.296875l0 -3.3906403l4.609375 0q0.328125 0 0.328125 -0.328125q-0.015625 -0.3125 -0.359375 -0.3125z" fill-rule="nonzero"/><path fill="#000000" fill-opacity="0.0" d="m774.5407 234.94751l159.08661 0l0 53.700775l-159.08661 0z" fill-rule="evenodd"/><path fill="#000000" d="m794.1501 247.10689l-8.1875 0q-0.359375 0 -0.359375 0.328125q0 0.34375 0.34375 0.34375l3.71875 0l0 0.609375q0 1.359375 -1.234375 2.546875q-1.25 1.171875 -2.875 1.390625q-0.203125 0.03125 -0.296875 0.171875q-0.09375 0.125 -0.0625 0.28125q0.015625 0.140625 0.140625 0.234375q0.140625 0.109375 0.34375 0.078125q1.484375 -0.265625 2.828125 -1.328125q1.15625 -0.9375 1.53125 -1.890625q0.34375 0.9375 1.546875 1.875q1.34375 1.078125 2.859375 1.34375q0.171875 0.03125 0.296875 -0.078125q0.125 -0.09375 0.140625 -0.234375q0.03125 -0.140625 -0.046875 -0.265625q-0.09375 -0.140625 -0.265625 -0.15625q-1.6875 -0.25 -2.9375 -1.4375q-1.21875 -1.171875 -1.21875 -2.53125l0 -0.609375l3.734375 0q0.328125 0 0.328125 -0.34375q0 -0.328125 -0.328125 -0.328125zm-4.484375 6.140625l0 2.625l-4.546875 0q-0.1875 0 -0.28125 0.09375q-0.09375 0.09373474 -0.109375 0.21873474q0 0.125 0.0625 0.234375q0.078125 0.09375 0.21875 0.09375l9.96875 0q0.171875 0 0.265625 -0.09375q0.109375 -0.109375 0.109375 -0.234375q0 -0.125 -0.109375 -0.21873474q-0.09375 -0.09375 -0.28125 -0.09375l-4.546875 0l0 -2.578125q0 -0.171875 -0.140625 -0.28125q-0.09375 -0.09375 -0.234375 -0.09375q-0.15625 -0.015625 -0.25 0.0625q-0.125 0.09375 -0.125 0.265625zm12.578125 -6.078125l-3.8125 0q-0.359375 0 -0.34375 0.3125q0 0.328125 0.359375 0.328125l3.8125 0q0.28125 0 0.40625 0.125q0.15625 0.125 0.15625 0.390625l0 0.625q0 1.46875 -1.1875 2.453125q-1.25 1.015625 -3.390625 1.171875q-0.1875 0 -0.3125 0.09375q-0.078125 0.109375 -0.0625 0.234375q0 0.140625 0.109375 0.21875q0.109375 0.09375 0.296875 0.09375q2.359375 -0.15625 3.84375 -1.375q1.4375 -1.171875 1.4375 -2.875l0 -0.6875q0 -0.53125 -0.359375 -0.828125q-0.359375 -0.28125 -0.953125 -0.28125zm4.890625 6.953125l0 -6.953125q0 -0.203125 -0.125 -0.296875q-0.109375 -0.09375 -0.265625 -0.09375q-0.15625 0 -0.265625 0.09375q-0.109375 0.09375 -0.109375 0.296875l0 2.890625l-2.34375 0q-0.1875 0 -0.28125 0.078125q-0.109375 0.109375 -0.09375 0.234375q0 0.125 0.109375 0.234375q0.125 0.09375 0.328125 0.09375l2.28125 0l0 3.421875q0 0.1875 0.109375 0.296875q0.109375 0.109375 0.265625 0.109375q0.15625 0 0.265625 -0.109375q0.125 -0.109375 0.125 -0.296875zm-7.40625 0.15625q0 -0.203125 -0.125 -0.328125q-0.109375 -0.09375 -0.25 -0.09375q-0.171875 0 -0.265625 0.09375q-0.125 0.125 -0.125 0.328125l0 1.6875q0 0.54685974 0.359375 0.84373474q0.328125 0.28125 0.90625 0.28125l6.96875 0q0.3125 0 0.3125 -0.328125q0 -0.328125 -0.3125 -0.328125l-6.84375 0q-0.375 0 -0.5 -0.109375q-0.125 -0.125 -0.125 -0.46873474l0 -1.578125zm14.34375 -7.1875q-1.390625 0 -2.1875 1.421875q-0.734375 1.296875 -0.734375 3.25q0 1.921875 0.734375 3.203125q0.796875 1.4218597 2.1875 1.4218597q1.375 0 2.15625 -1.4218597q0.734375 -1.28125 0.734375 -3.203125q0 -1.953125 -0.734375 -3.25q-0.78125 -1.421875 -2.15625 -1.421875zm0 0.65625q1.015625 0 1.59375 1.203125q0.546875 1.109375 0.546875 2.8125q0 1.65625 -0.546875 2.78125q-0.578125 1.21875 -1.59375 1.21875q-1.046875 0 -1.625 -1.21875q-0.53125 -1.125 -0.53125 -2.78125q0 -1.703125 0.53125 -2.8125q0.578125 -1.203125 1.625 -1.203125zm6.0625 9.249985l0 -9.874985q0 -0.15625 -0.125 -0.265625q-0.109375 -0.078125 -0.265625 -0.078125q-0.15625 0 -0.265625 0.078125q-0.109375 0.109375 -0.109375 0.265625l0 9.874985q0 0.1875 0.109375 0.296875q0.109375 0.09375 0.265625 0.09375q0.15625 0 0.265625 -0.09375q0.125 -0.109375 0.125 -0.296875z" fill-rule="nonzero"/><path fill="#000000" d="m829.6655 250.77876l7.171875 0q0.34375 0 0.34375 -0.328125q-0.015625 -0.3125 -0.34375 -0.3125l-7.0625 0q-0.3125 0 -0.4375 -0.125q-0.125 -0.125 -0.125 -0.390625l0 -0.453125l7.46875 0q0.359375 0 0.359375 -0.328125q0 -0.328125 -0.375 -0.328125l-7.453125 0l0 -0.515625q0 -0.21875 0.15625 -0.328125q0.15625 -0.09375 0.4375 -0.09375l7.03125 0q0.15625 0 0.265625 -0.109375q0.078125 -0.09375 0.078125 -0.234375q0 -0.125 -0.109375 -0.21875q-0.09375 -0.09375 -0.265625 -0.09375l-7.140625 0q-0.546875 0 -0.875 0.296875q-0.34375 0.296875 -0.34375 0.765625l0 1.703125q0 0.46875 0.328125 0.78125q0.328125 0.3125 0.890625 0.3125zm8.0 0.921875l-9.84375 0q-0.375 0 -0.390625 0.3125q0 0.3125 0.359375 0.3125l9.9375 0q0.140625 0 0.25 -0.09375q0.078125 -0.09375 0.078125 -0.21875q0 -0.125 -0.109375 -0.21875q-0.09375 -0.09375 -0.28125 -0.09375zm-1.796875 1.53125l-7.046875 0q-0.375 0 -0.390625 0.3125q0 0.328125 0.375 0.328125l6.96875 0q0.265625 0 0.390625 0.09375q0.109375 0.109375 0.109375 0.3125l0 0.328125q0 0.15625 -0.125 0.234375q-0.125 0.078125 -0.34375 0.078125l-6.375 0q-0.46875 0 -0.71875 0.234375q-0.265625 0.265625 -0.265625 0.671875l0 0.56248474q0 0.390625 0.25 0.625q0.234375 0.25 0.671875 0.25l7.46875 0q0.15625 0 0.25 -0.109375q0.09375 -0.09375 0.09375 -0.234375q-0.015625 -0.125 -0.109375 -0.21875q-0.109375 -0.09375 -0.296875 -0.09375l-7.125 0q-0.234375 0 -0.328125 -0.078125q-0.109375 -0.078125 -0.109375 -0.265625l0 -0.29685974q0 -0.203125 0.09375 -0.296875q0.09375 -0.109375 0.359375 -0.109375l6.4375 0q0.40625 0 0.671875 -0.265625q0.265625 -0.234375 0.265625 -0.609375l0 -0.609375q0 -0.390625 -0.359375 -0.625q-0.328125 -0.21875 -0.8125 -0.21875zm9.109375 -6.1875l-3.625 0q-0.40625 0 -0.40625 0.328125q-0.015625 0.328125 0.375 0.328125l3.59375 0q0.25 0 0.40625 0.109375q0.15625 0.125 0.15625 0.375l0 0.40625q0 0.265625 -0.125 0.375q-0.109375 0.09375 -0.4375 0.09375l-2.765625 0q-0.5625 0 -0.859375 0.328125q-0.28125 0.296875 -0.28125 0.8125l0 0.765625q0 0.515625 0.296875 0.8125q0.3125 0.328125 0.953125 0.328125q1.71875 0 2.859375 -0.109375q1.578125 -0.15625 2.6875 -0.546875q0.140625 -0.0625 0.203125 -0.203125q0.03125 -0.125 -0.015625 -0.25q-0.046875 -0.125 -0.1875 -0.1875q-0.125 -0.0625 -0.28125 0.015625q-0.890625 0.328125 -2.28125 0.5q-1.28125 0.171875 -2.90625 0.171875q-0.296875 0 -0.4375 -0.15625q-0.140625 -0.140625 -0.140625 -0.453125l0 -0.65625q0 -0.265625 0.109375 -0.390625q0.125 -0.125 0.390625 -0.125l2.765625 0q0.59375 0 0.890625 -0.25q0.28125 -0.265625 0.28125 -0.75l0 -0.703125q0 -0.453125 -0.328125 -0.71875q-0.328125 -0.25 -0.890625 -0.25zm4.859375 4.90625l0 -4.84375q0 -0.15625 -0.125 -0.25q-0.109375 -0.09375 -0.265625 -0.09375q-0.15625 0 -0.265625 0.09375q-0.109375 0.109375 -0.109375 0.265625l0 4.828125q0 0.15625 0.109375 0.265625q0.109375 0.09375 0.265625 0.09375q0.15625 0 0.265625 -0.09375q0.125 -0.109375 0.125 -0.265625zm-1.15625 1.03125l-6.75 0q-0.390625 0 -0.375 0.328125q0 0.328125 0.375 0.328125l6.640625 0q0.265625 0 0.390625 0.09375q0.109375 0.078125 0.109375 0.3125l0 0.34375q0 0.171875 -0.140625 0.25q-0.109375 0.078125 -0.34375 0.078125l-6.046875 0q-0.421875 0 -0.6875 0.234375q-0.265625 0.25 -0.265625 0.671875l0 0.73435974q0 0.40625 0.28125 0.65625q0.265625 0.25 0.703125 0.25l7.25 0q0.15625 0 0.25 -0.109375q0.09375 -0.09375 0.09375 -0.234375q-0.015625 -0.125 -0.109375 -0.21875q-0.109375 -0.09375 -0.28125 -0.09375l-6.984375 0q-0.234375 0 -0.328125 -0.078125q-0.125 -0.078125 -0.125 -0.265625l0 -0.49998474q0 -0.203125 0.09375 -0.296875q0.109375 -0.109375 0.375 -0.109375l6.015625 0q0.453125 0 0.734375 -0.234375q0.28125 -0.234375 0.28125 -0.640625l0 -0.546875q0 -0.4375 -0.296875 -0.6875q-0.3125 -0.265625 -0.859375 -0.265625zm9.34375 -5.90625l-3.890625 0q-0.359375 0 -0.34375 0.3125q0 0.328125 0.359375 0.328125l3.796875 0q0.265625 0 0.421875 0.125q0.15625 0.140625 0.15625 0.40625l0 0.546875q0 1.4375 -1.171875 2.234375q-1.171875 0.78125 -3.375 0.875q-0.203125 0 -0.3125 0.109375q-0.09375 0.09375 -0.09375 0.234375q0 0.125 0.125 0.203125q0.109375 0.09375 0.296875 0.09375q2.5 -0.109375 3.890625 -1.109375q1.375 -1.0 1.375 -2.625l0 -0.671875q0 -0.484375 -0.359375 -0.765625q-0.34375 -0.296875 -0.875 -0.296875zm4.8125 5.90625l0 -5.8125q0 -0.203125 -0.125 -0.296875q-0.109375 -0.09375 -0.265625 -0.09375q-0.15625 0 -0.265625 0.09375q-0.109375 0.09375 -0.109375 0.296875l0 1.21875l-2.1875 0q-0.1875 0 -0.296875 0.09375q-0.109375 0.109375 -0.109375 0.234375q0 0.125 0.109375 0.21875q0.109375 0.109375 0.296875 0.109375l2.1875 0l0 1.875l-2.1875 0q-0.1875 0 -0.296875 0.109375q-0.109375 0.078125 -0.109375 0.21875q0 0.125 0.109375 0.21875q0.109375 0.109375 0.296875 0.109375l2.1875 0l0 1.40625q0 0.15625 0.109375 0.265625q0.109375 0.078125 0.265625 0.078125q0.15625 0 0.265625 -0.078125q0.125 -0.109375 0.125 -0.265625zm-4.09375 0.328125q-2.0625 0 -3.1875 0.609375q-0.984375 0.5625 -0.984375 1.453125q0 0.85935974 0.984375 1.4218597q1.125 0.625 3.1875 0.625q2.0625 0 3.171875 -0.625q1.0 -0.546875 1.0 -1.4218597q0 -0.890625 -1.0 -1.453125q-1.109375 -0.609375 -3.171875 -0.609375zm0 0.625q1.71875 0 2.609375 0.421875q0.828125 0.390625 0.828125 1.015625q0 0.59375 -0.828125 0.98435974q-0.90625 0.421875 -2.609375 0.421875q-1.71875 0 -2.625 -0.421875q-0.8125 -0.39060974 -0.8125 -0.98435974q0 -0.625 0.8125 -1.015625q0.90625 -0.421875 2.625 -0.421875zm13.0 -6.984375q-2.203125 0 -3.359375 0.6875q-1.078125 0.609375 -1.078125 1.625q0 1.015625 1.078125 1.640625q1.171875 0.703125 3.359375 0.703125q2.171875 0 3.359375 -0.703125q1.078125 -0.625 1.078125 -1.640625q0 -1.015625 -1.078125 -1.625q-1.171875 -0.6875 -3.359375 -0.6875zm0 0.640625q1.8125 0 2.796875 0.484375q0.890625 0.4375 0.890625 1.1875q0 0.75 -0.890625 1.1875q-0.96875 0.5 -2.796875 0.5q-1.84375 0 -2.8125 -0.5q-0.875 -0.4375 -0.875 -1.1875q0 -0.75 0.875 -1.1875q0.984375 -0.484375 2.8125 -0.484375zm4.953125 5.375l-9.875 0q-0.359375 0 -0.375 0.3125q-0.015625 0.328125 0.328125 0.328125l4.59375 0l0 3.4062347q0 0.171875 0.125 0.296875q0.09375 0.078125 0.25 0.078125q0.140625 0 0.234375 -0.09375q0.140625 -0.109375 0.140625 -0.296875l0 -3.3906097l4.609375 0q0.328125 0 0.328125 -0.328125q-0.015625 -0.3125 -0.359375 -0.3125z" fill-rule="nonzero"/><path fill="#fff2cc" d="m513.98425 92.41215l0 0c0 -2.1338043 1.7297974 -3.863594 3.8635864 -3.863594l45.028748 0c1.0246582 0 2.0073853 0.40705872 2.7319336 1.1316223c0.7246094 0.7245636 1.1316528 1.707283 1.1316528 2.7319717l0 15.453918c0 2.1338043 -1.7297974 3.863594 -3.8635864 3.863594l-45.028748 0c-2.133789 0 -3.8635864 -1.7297897 -3.8635864 -3.863594z" fill-rule="evenodd"/><path stroke="#666666" stroke-width="1.0" stroke-linejoin="round" stroke-linecap="butt" d="m513.98425 92.41215l0 0c0 -2.1338043 1.7297974 -3.863594 3.8635864 -3.863594l45.028748 0c1.0246582 0 2.0073853 0.40705872 2.7319336 1.1316223c0.7246094 0.7245636 1.1316528 1.707283 1.1316528 2.7319717l0 15.453918c0 2.1338043 -1.7297974 3.863594 -3.8635864 3.863594l-45.028748 0c-2.133789 0 -3.8635864 -1.7297897 -3.8635864 -3.863594z" fill-rule="evenodd"/><path fill="#000000" d="m537.97156 95.298485l-8.1875 0q-0.359375 0 -0.359375 0.328125q0 0.34375 0.34375 0.34375l3.71875 0l0 0.609375q0 1.359375 -1.234375 2.546875q-1.25 1.171875 -2.875 1.390625q-0.203125 0.03125 -0.296875 0.171875q-0.09375 0.125 -0.0625 0.28125q0.015625 0.140625 0.140625 0.234375q0.140625 0.109375 0.34375 0.078125q1.484375 -0.265625 2.828125 -1.328125q1.15625 -0.9375 1.53125 -1.890625q0.34375 0.9375 1.546875 1.875q1.34375 1.078125 2.859375 1.34375q0.171875 0.03125 0.296875 -0.078125q0.125 -0.09375 0.140625 -0.234375q0.03125 -0.140625 -0.046875 -0.265625q-0.09375 -0.140625 -0.265625 -0.15625q-1.6875 -0.25 -2.9375 -1.4375q-1.21875 -1.171875 -1.21875 -2.53125l0 -0.609375l3.734375 0q0.328125 0 0.328125 -0.34375q0 -0.328125 -0.328125 -0.328125zm-4.484375 6.140625l0 2.625l-4.546875 0q-0.1875 0 -0.28125 0.09375q-0.09375 0.09375 -0.109375 0.21875q0 0.125 0.0625 0.234375q0.078125 0.09375 0.21875 0.09375l9.96875 0q0.171875 0 0.265625 -0.09375q0.109375 -0.109375 0.109375 -0.234375q0 -0.125 -0.109375 -0.21875q-0.09375 -0.09375 -0.28125 -0.09375l-4.546875 0l0 -2.578125q0 -0.171875 -0.140625 -0.28125q-0.09375 -0.09375 -0.234375 -0.09375q-0.15625 -0.015625 -0.25 0.0625q-0.125 0.09375 -0.125 0.265625zm12.578125 -6.078125l-3.8125 0q-0.359375 0 -0.34375 0.3125q0 0.328125 0.359375 0.328125l3.8125 0q0.28125 0 0.40625 0.125q0.15625 0.125 0.15625 0.390625l0 0.625q0 1.46875 -1.1875 2.453125q-1.25 1.015625 -3.390625 1.171875q-0.1875 0 -0.3125 0.09375q-0.078125 0.109375 -0.0625 0.234375q0 0.140625 0.109375 0.21875q0.109375 0.09375 0.296875 0.09375q2.359375 -0.15625 3.84375 -1.375q1.4375 -1.171875 1.4375 -2.875l0 -0.6875q0 -0.53125 -0.359375 -0.828125q-0.359375 -0.28125 -0.953125 -0.28125zm4.890625 6.953125l0 -6.953125q0 -0.203125 -0.125 -0.296875q-0.109375 -0.09375 -0.265625 -0.09375q-0.15625 0 -0.265625 0.09375q-0.109375 0.09375 -0.109375 0.296875l0 2.890625l-2.34375 0q-0.1875 0 -0.28125 0.078125q-0.109375 0.109375 -0.09375 0.234375q0 0.125 0.109375 0.234375q0.125 0.09375 0.328125 0.09375l2.28125 0l0 3.421875q0 0.1875 0.109375 0.296875q0.109375 0.109375 0.265625 0.109375q0.15625 0 0.265625 -0.109375q0.125 -0.109375 0.125 -0.296875zm-7.40625 0.15625q0 -0.203125 -0.125 -0.328125q-0.109375 -0.09375 -0.25 -0.09375q-0.171875 0 -0.265625 0.09375q-0.125 0.125 -0.125 0.328125l0 1.6875q0 0.546875 0.359375 0.84375q0.328125 0.28125 0.90625 0.28125l6.96875 0q0.3125 0 0.3125 -0.328125q0 -0.328125 -0.3125 -0.328125l-6.84375 0q-0.375 0 -0.5 -0.109375q-0.125 -0.125 -0.125 -0.46875l0 -1.578125z" fill-rule="nonzero"/><path fill="#fff2cc" d="m524.3884 129.98958l0 0c0 -2.1338043 1.7297974 -3.863594 3.8636475 -3.863594l52.178284 0c1.0247192 0 2.0074463 0.40705872 2.7319946 1.1316223c0.72454834 0.7245636 1.1315918 1.707283 1.1315918 2.7319717l0 15.453918c0 2.1338043 -1.7297974 3.8635864 -3.8635864 3.8635864l-52.178284 0l0 0c-2.13385 0 -3.8636475 -1.7297821 -3.8636475 -3.8635864z" fill-rule="evenodd"/><path stroke="#666666" stroke-width="1.0" stroke-linejoin="round" stroke-linecap="butt" d="m524.3884 129.98958l0 0c0 -2.1338043 1.7297974 -3.863594 3.8636475 -3.863594l52.178284 0c1.0247192 0 2.0074463 0.40705872 2.7319946 1.1316223c0.72454834 0.7245636 1.1315918 1.707283 1.1315918 2.7319717l0 15.453918c0 2.1338043 -1.7297974 3.8635864 -3.8635864 3.8635864l-52.178284 0l0 0c-2.13385 0 -3.8636475 -1.7297821 -3.8636475 -3.8635864z" fill-rule="evenodd"/><path fill="#000000" d="m540.0022 133.12592q0 0.921875 -0.65625 2.109375q-0.78125 1.421875 -2.109375 2.375q-0.1875 0.09375 -0.203125 0.25q-0.03125 0.140625 0.0625 0.25q0.078125 0.109375 0.21875 0.140625q0.140625 0.03125 0.296875 -0.078125q0.9375 -0.71875 1.578125 -1.46875q0.484375 -0.59375 1.03125 -1.5q0.84375 0.46875 1.546875 1.109375q0.65625 0.625 1.296875 1.515625q0.109375 0.15625 0.265625 0.1875q0.140625 0 0.28125 -0.078125q0.109375 -0.078125 0.125 -0.234375q0.015625 -0.171875 -0.09375 -0.328125q-0.75 -0.984375 -1.375 -1.546875q-0.75 -0.671875 -1.828125 -1.265625l0.03125 -0.109375q0.140625 -0.390625 0.1875 -0.609375q0.09375 -0.359375 0.09375 -0.71875q0 -0.1875 -0.125 -0.296875q-0.109375 -0.09375 -0.265625 -0.09375q-0.140625 0 -0.25 0.09375q-0.109375 0.109375 -0.109375 0.296875zm6.375 4.59375l0 -4.84375q0 -0.15625 -0.125 -0.25q-0.109375 -0.09375 -0.265625 -0.09375q-0.15625 0 -0.265625 0.09375q-0.109375 0.109375 -0.109375 0.265625l0 4.828125q0 0.15625 0.109375 0.265625q0.109375 0.09375 0.265625 0.09375q0.15625 0 0.265625 -0.09375q0.125 -0.109375 0.125 -0.265625zm-1.15625 1.03125l-6.75 0q-0.390625 0 -0.375 0.328125q0 0.328125 0.375 0.328125l6.640625 0q0.265625 0 0.390625 0.09375q0.109375 0.078125 0.109375 0.3125l0 0.34375q0 0.171875 -0.140625 0.25q-0.109375 0.078125 -0.34375 0.078125l-6.046875 0q-0.421875 0 -0.6875 0.234375q-0.265625 0.25 -0.265625 0.671875l0 0.734375q0 0.40625 0.28125 0.65625q0.265625 0.25 0.703125 0.25l7.25 0q0.15625 0 0.25 -0.109375q0.09375 -0.09375 0.09375 -0.234375q-0.015625 -0.125 -0.109375 -0.21875q-0.109375 -0.09375 -0.28125 -0.09375l-6.984375 0q-0.234375 0 -0.328125 -0.078125q-0.125 -0.078125 -0.125 -0.265625l0 -0.5q0 -0.203125 0.09375 -0.296875q0.109375 -0.109375 0.375 -0.109375l6.015625 0q0.453125 0 0.734375 -0.234375q0.28125 -0.234375 0.28125 -0.640625l0 -0.546875q0 -0.4375 -0.296875 -0.6875q-0.3125 -0.265625 -0.859375 -0.265625zm10.171875 -4.59375l-4.9375 0q-0.34375 0 -0.34375 0.328125q0 0.328125 0.34375 0.328125l4.984375 0q0.15625 0 0.25 -0.109375q0.09375 -0.09375 0.09375 -0.21875q-0.015625 -0.125 -0.109375 -0.234375q-0.109375 -0.09375 -0.28125 -0.09375zm-1.265625 -1.46875l-2.34375 0q-0.375 0 -0.375 0.3125q0 0.34375 0.375 0.34375l2.359375 0q0.359375 0 0.359375 -0.34375q0 -0.3125 -0.375 -0.3125zm-1.171875 2.6875q-1.140625 0 -1.8125 0.53125q-0.59375 0.484375 -0.59375 1.203125q0 0.6875 0.59375 1.171875q0.671875 0.546875 1.8125 0.546875q1.125 0 1.78125 -0.546875q0.59375 -0.484375 0.59375 -1.171875q0 -0.71875 -0.59375 -1.203125q-0.640625 -0.53125 -1.78125 -0.53125zm0 0.640625q0.8125 0 1.25 0.328125q0.40625 0.3125 0.40625 0.765625q0 0.4375 -0.40625 0.71875q-0.4375 0.328125 -1.25 0.328125q-0.8125 0 -1.265625 -0.328125q-0.390625 -0.28125 -0.390625 -0.71875q0 -0.453125 0.390625 -0.765625q0.453125 -0.328125 1.265625 -0.328125zm6.015625 -3.109375l0 2.90625l-1.828125 0l0 -2.953125q0 -0.328125 -0.375 -0.328125q-0.359375 0 -0.359375 0.328125l0 5.515625q0 0.171875 0.109375 0.28125q0.09375 0.09375 0.25 0.09375q0.15625 0 0.25 -0.09375q0.125 -0.109375 0.125 -0.28125l0 -1.921875l1.828125 0l0 2.234375q0 0.203125 0.125 0.3125q0.09375 0.109375 0.25 0.109375q0.140625 0 0.234375 -0.109375q0.140625 -0.125 0.140625 -0.328125l0 -5.75q0 -0.375 -0.375 -0.375q-0.375 0 -0.375 0.359375zm-3.421875 6.6875q-2.1875 0 -3.34375 0.515625q-1.015625 0.484375 -1.015625 1.28125q0 0.796875 1.015625 1.265625q1.140625 0.53125 3.34375 0.53125q2.21875 0 3.375 -0.53125q1.046875 -0.46875 1.046875 -1.265625q0 -0.796875 -1.046875 -1.28125q-1.15625 -0.515625 -3.375 -0.515625zm0 0.65625q1.875 0 2.8125 0.328125q0.84375 0.28125 0.84375 0.8125q0 0.53125 -0.84375 0.8125q-0.9375 0.34375 -2.8125 0.34375q-1.859375 0 -2.78125 -0.34375q-0.828125 -0.28125 -0.828125 -0.8125q0 -0.53125 0.828125 -0.8125q0.921875 -0.328125 2.78125 -0.328125z" fill-rule="nonzero"/><path fill="#000000" d="m570.4552 142.51654l-1.171875 0l0 -7.46875q-0.421875 0.40625 -1.109375 0.8125q-0.6875 0.40625 -1.234375 0.609375l0 -1.140625q0.984375 -0.453125 1.71875 -1.109375q0.734375 -0.671875 1.03125 -1.28125l0.765625 0l0 9.578125z" fill-rule="nonzero"/><path fill="#000000" fill-opacity="0.0" d="m709.83203 111.10499l-1.2283325 73.54331" fill-rule="evenodd"/><path stroke="#595959" stroke-width="1.0" stroke-linejoin="round" stroke-linecap="butt" d="m709.83203 111.10499l-1.1281128 67.54415" fill-rule="evenodd"/><path fill="#595959" stroke="#595959" stroke-width="1.0" stroke-linecap="butt" d="m707.05237 178.62155l1.5757446 4.565048l1.7272339 -4.5098877z" fill-rule="evenodd"/><path fill="#000000" fill-opacity="0.0" d="m824.4908 338.9449c0 12.589783 -28.968445 18.884308 -57.93695 25.179596c-28.968506 6.2952576 -57.93701 12.591309 -57.93701 25.182617" fill-rule="evenodd"/><path stroke="#595959" stroke-width="1.0" stroke-linejoin="round" stroke-linecap="butt" d="m824.4908 338.9449c0 12.589813 -28.968445 18.884308 -57.93695 25.179596c-14.484253 3.1476135 -28.968506 6.295471 -39.831726 10.230286c-5.4315796 1.9674072 -9.957947 4.131592 -13.126282 6.590851c-0.7921753 0.61483765 -1.4994507 1.2480774 -2.114685 1.9013367c-0.15386963 0.16329956 -0.30194092 0.32788086 -0.44415283 0.49368286c-0.07110596 0.08291626 -0.14074707 0.16616821 -0.20892334 0.24969482l-0.08453369 0.10632324" fill-rule="evenodd"/><path fill="#595959" stroke="#595959" stroke-width="1.0" stroke-linecap="butt" d="m709.19904 383.11118l-0.06402588 4.8289185l3.1530151 -3.657959z" fill-rule="evenodd"/><path fill="#000000" fill-opacity="0.0" d="m650.6667 389.30447l115.87402 0l0 50.362183l-115.87402 0z" fill-rule="evenodd"/><path fill="#000000" fill-opacity="0.0" d="m607.09973 338.9449c0 12.589783 25.37793 18.884308 50.75592 25.179596c25.37793 6.2952576 50.75592 12.591309 50.75592 25.182617" fill-rule="evenodd"/><path stroke="#595959" stroke-width="1.0" stroke-linejoin="round" stroke-linecap="butt" d="m607.09973 338.9449c0 12.589813 25.37793 18.884308 50.75592 25.179596c12.688965 3.1476135 25.37793 6.295471 34.894653 10.230286c4.758362 1.9674072 8.723694 4.131592 11.49939 6.590851c0.6939697 0.61483765 1.3135376 1.2480774 1.8526001 1.9013367c0.13476562 0.16329956 0.2644043 0.32788086 0.3890381 0.49368286c0.062316895 0.08291626 0.12335205 0.16616821 0.18304443 0.24969482l0.02142334 0.030822754" fill-rule="evenodd"/><path fill="#595959" stroke="#595959" stroke-width="1.0" stroke-linecap="butt" d="m705.13055 384.14853l3.0142212 3.7731628l0.11633301 -4.827942z" fill-rule="evenodd"/><path fill="#f3f3f3" d="m91.9895 81.03937l140.69292 0l0 86.80315l-140.69292 0z" fill-rule="evenodd"/><path fill="#000000" d="m102.22388 96.490616l0 -1.890625l1.640625 0l0 1.890625l-1.640625 0zm0 11.46875l0 -9.671875l1.640625 0l0 9.671875l-1.640625 0zm4.535446 0l0 -8.40625l-1.453125 0l0 -1.265625l1.453125 0l0 -1.03125q0 -0.96875 0.171875 -1.453125q0.234375 -0.640625 0.828125 -1.03125q0.59375 -0.390625 1.671875 -0.390625q0.6875 0 1.53125 0.15625l-0.25 1.4375q-0.5 -0.09375 -0.953125 -0.09375q-0.75 0 -1.0625 0.328125q-0.3125 0.3125 -0.3125 1.1875l0 0.890625l1.890625 0l0 1.265625l-1.890625 0l0 8.40625l-1.625 0zm72.62875 -7.8125l0 -1.859375l1.859375 0l0 1.859375l-1.859375 0zm0 7.8125l0 -1.875l1.859375 0l0 1.875l-1.859375 0z" fill-rule="nonzero"/><path fill="#fff2cc" d="m204.67192 188.19965l0 0c0 -4.783661 3.8779144 -8.661591 8.661591 -8.661591l114.55083 0c2.2972107 0 4.500305 0.91256714 6.1246643 2.5369263c1.6243591 1.6243591 2.5369263 3.8274689 2.5369263 6.1246643l0 34.645325c0 4.783661 -3.8779297 8.661591 -8.661591 8.661591l-114.55083 0l0 0c-4.783676 0 -8.661591 -3.8779297 -8.661591 -8.661591z" fill-rule="evenodd"/><path stroke="#666666" stroke-width="1.0" stroke-linejoin="round" stroke-linecap="butt" d="m204.67192 188.19965l0 0c0 -4.783661 3.8779144 -8.661591 8.661591 -8.661591l114.55083 0c2.2972107 0 4.500305 0.91256714 6.1246643 2.5369263c1.6243591 1.6243591 2.5369263 3.8274689 2.5369263 6.1246643l0 34.645325c0 4.783661 -3.8779297 8.661591 -8.661591 8.661591l-114.55083 0l0 0c-4.783676 0 -8.661591 -3.8779297 -8.661591 -8.661591z" fill-rule="evenodd"/><path fill="#000000" d="m267.12454 198.36418l-11.968735 0q-0.515625 0 -0.515625 0.484375q-0.03125 0.46875 0.5 0.46875l5.4374847 0l0 0.921875q0 1.984375 -1.828125 3.703125q-1.8125 1.734375 -4.1874847 2.046875q-0.296875 0.03125 -0.453125 0.234375q-0.125 0.1875 -0.09375 0.40625q0.046875 0.234375 0.234375 0.359375q0.1875 0.140625 0.484375 0.109375q2.1874847 -0.390625 4.1249847 -1.9375q1.71875 -1.359375 2.25 -2.75q0.5 1.34375 2.265625 2.71875q1.96875 1.578125 4.171875 1.96875q0.265625 0.03125 0.453125 -0.109375q0.15625 -0.125 0.203125 -0.359375q0.03125 -0.203125 -0.078125 -0.390625q-0.125 -0.1875 -0.390625 -0.21875q-2.46875 -0.375 -4.28125 -2.09375q-1.8125 -1.703125 -1.8125 -3.6875l0 -0.921875l5.484375 0q0.453125 0 0.453125 -0.46875q0 -0.484375 -0.453125 -0.484375zm-6.546875 8.953125l0 3.84375l-6.6718597 0q-0.25 0 -0.40625 0.125q-0.125 0.15625 -0.140625 0.34375q-0.03125 0.1875 0.09375 0.328125q0.109375 0.15625 0.3125 0.15625l14.562485 0q0.234375 0 0.390625 -0.15625q0.140625 -0.140625 0.140625 -0.328125q0 -0.1875 -0.140625 -0.34375q-0.15625 -0.125 -0.40625 -0.125l-6.671875 0l0 -3.765625q0 -0.265625 -0.171875 -0.40625q-0.15625 -0.15625 -0.359375 -0.15625q-0.21875 -0.015625 -0.375 0.109375q-0.15625 0.140625 -0.15625 0.375zm18.359375 -8.890625l-5.5625 0q-0.515625 0 -0.5 0.46875q0 0.484375 0.515625 0.484375l5.5625 0q0.421875 0 0.625 0.1875q0.21875 0.1875 0.21875 0.578125l0 0.90625q0 2.15625 -1.75 3.578125q-1.8125 1.484375 -4.953125 1.703125q-0.28125 0 -0.4375 0.15625q-0.140625 0.140625 -0.109375 0.328125q0.015625 0.203125 0.15625 0.34375q0.171875 0.125 0.453125 0.125q3.453125 -0.21875 5.59375 -2.0q2.109375 -1.734375 2.109375 -4.21875l0 -1.0q0 -0.78125 -0.53125 -1.203125q-0.515625 -0.4375 -1.390625 -0.4375zm7.140625 10.171875l0 -10.171875q0 -0.265625 -0.171875 -0.421875q-0.15625 -0.125 -0.375 -0.125q-0.25 0 -0.390625 0.125q-0.171875 0.15625 -0.171875 0.421875l0 4.234375l-3.4375 0q-0.25 0 -0.40625 0.125q-0.140625 0.15625 -0.125 0.34375q0 0.1875 0.171875 0.328125q0.15625 0.15625 0.453125 0.15625l3.34375 0l0 4.984375q0 0.28125 0.171875 0.453125q0.140625 0.140625 0.390625 0.140625q0.21875 0 0.375 -0.140625q0.171875 -0.171875 0.171875 -0.453125zm-10.8125 0.21875q0 -0.296875 -0.1875 -0.453125q-0.140625 -0.15625 -0.375 -0.15625q-0.234375 0 -0.375 0.15625q-0.171875 0.15625 -0.171875 0.453125l0 2.46875q0 0.828125 0.515625 1.25q0.484375 0.40625 1.3125 0.40625l10.1875 0q0.46875 0 0.46875 -0.484375q0 -0.46875 -0.46875 -0.46875l-10.0 0q-0.53125 0 -0.71875 -0.15625q-0.1875 -0.1875 -0.1875 -0.6875l0 -2.328125z" fill-rule="nonzero"/><path fill="#fff2cc" d="m103.16798 290.52774l0 0c0 -4.783661 3.8779297 -8.661591 8.661591 -8.661591l114.550835 0c2.2971954 0 4.500305 0.9125366 6.1246796 2.5369263c1.6243591 1.6243591 2.536911 3.8274536 2.536911 6.1246643l0 34.645325c0 4.783661 -3.8779297 8.661591 -8.661591 8.661591l-114.550835 0l0 0c-4.783661 0 -8.661591 -3.8779297 -8.661591 -8.661591z" fill-rule="evenodd"/><path stroke="#666666" stroke-width="1.0" stroke-linejoin="round" stroke-linecap="butt" d="m103.16798 290.52774l0 0c0 -4.783661 3.8779297 -8.661591 8.661591 -8.661591l114.550835 0c2.2971954 0 4.500305 0.9125366 6.1246796 2.5369263c1.6243591 1.6243591 2.536911 3.8274536 2.536911 6.1246643l0 34.645325c0 4.783661 -3.8779297 8.661591 -8.661591 8.661591l-114.550835 0l0 0c-4.783661 0 -8.661591 -3.8779297 -8.661591 -8.661591z" fill-rule="evenodd"/><path fill="#000000" d="m148.48174 301.036q0 1.359375 -0.9375 3.109375q-1.15625 2.078125 -3.109375 3.4375q-0.25 0.15625 -0.296875 0.375q-0.03125 0.203125 0.09375 0.375q0.109375 0.171875 0.328125 0.203125q0.21875 0.03125 0.4375 -0.109375q1.375 -1.0625 2.296875 -2.15625q0.734375 -0.875 1.5 -2.1875q1.25 0.6875 2.265625 1.625q0.96875 0.921875 1.890625 2.21875q0.171875 0.21875 0.421875 0.25q0.203125 0.03125 0.390625 -0.09375q0.15625 -0.125 0.203125 -0.34375q0.015625 -0.25 -0.15625 -0.484375q-1.09375 -1.421875 -2.0 -2.265625q-1.09375 -0.984375 -2.671875 -1.828125l0.03125 -0.171875q0.203125 -0.578125 0.28125 -0.890625q0.125 -0.515625 0.125 -1.0625q0 -0.28125 -0.1875 -0.421875q-0.140625 -0.125 -0.359375 -0.125q-0.234375 0 -0.375 0.125q-0.171875 0.140625 -0.171875 0.421875zm9.3125 6.71875l0 -7.0625q0 -0.25 -0.171875 -0.375q-0.15625 -0.125 -0.375 -0.125q-0.25 0 -0.390625 0.125q-0.171875 0.140625 -0.171875 0.390625l0 7.046875q0 0.25 0.171875 0.390625q0.140625 0.125 0.390625 0.125q0.21875 0 0.375 -0.125q0.171875 -0.140625 0.171875 -0.390625zm-1.6875 1.515625l-9.84375 0q-0.578125 0 -0.5625 0.46875q0 0.484375 0.5625 0.484375l9.703125 0q0.390625 0 0.546875 0.125q0.171875 0.140625 0.171875 0.46875l0 0.5q0 0.265625 -0.203125 0.375q-0.171875 0.109375 -0.5 0.109375l-8.828125 0q-0.609375 0 -1.0 0.359375q-0.390625 0.34375 -0.390625 0.953125l0 1.078125q0 0.59375 0.40625 0.96875q0.390625 0.359375 1.015625 0.359375l10.59375 0q0.25 0 0.375 -0.15625q0.125 -0.140625 0.125 -0.328125q-0.015625 -0.1875 -0.140625 -0.34375q-0.171875 -0.125 -0.4375 -0.125l-10.203125 0q-0.328125 0 -0.484375 -0.109375q-0.15625 -0.109375 -0.15625 -0.390625l0 -0.71875q0 -0.296875 0.125 -0.453125q0.171875 -0.140625 0.546875 -0.140625l8.78125 0q0.671875 0 1.078125 -0.359375q0.40625 -0.359375 0.40625 -0.921875l0 -0.796875q0 -0.65625 -0.421875 -1.03125q-0.4375 -0.375 -1.265625 -0.375zm14.875 -6.703125l-7.203125 0q-0.515625 0 -0.515625 0.453125q0 0.484375 0.515625 0.484375l7.265625 0q0.25 0 0.375 -0.140625q0.125 -0.15625 0.125 -0.34375q-0.015625 -0.1875 -0.140625 -0.328125q-0.171875 -0.125 -0.421875 -0.125zm-1.84375 -2.15625l-3.4375 0q-0.53125 0 -0.53125 0.46875q0 0.46875 0.53125 0.46875l3.453125 0q0.515625 0 0.515625 -0.46875q0 -0.46875 -0.53125 -0.46875zm-1.703125 3.9375q-1.671875 0 -2.65625 0.765625q-0.875 0.71875 -0.875 1.75q0 1.0 0.875 1.703125q0.984375 0.796875 2.65625 0.796875q1.625 0 2.59375 -0.796875q0.875 -0.703125 0.875 -1.703125q0 -1.03125 -0.875 -1.75q-0.953125 -0.765625 -2.59375 -0.765625zm0 0.921875q1.171875 0 1.8125 0.484375q0.59375 0.4375 0.59375 1.109375q0 0.65625 -0.59375 1.0625q-0.640625 0.484375 -1.8125 0.484375q-1.203125 0 -1.859375 -0.484375q-0.578125 -0.40625 -0.578125 -1.0625q0 -0.671875 0.578125 -1.109375q0.65625 -0.484375 1.859375 -0.484375zm8.796875 -4.546875l0 4.25l-2.671875 0l0 -4.3125q0 -0.46875 -0.5625 -0.46875q-0.53125 0 -0.53125 0.46875l0 8.0625q0 0.25 0.15625 0.40625q0.15625 0.140625 0.375 0.140625q0.21875 0 0.375 -0.140625q0.1875 -0.15625 0.1875 -0.40625l0 -2.828125l2.671875 0l0 3.265625q0 0.296875 0.15625 0.46875q0.15625 0.171875 0.375 0.171875q0.203125 0 0.359375 -0.171875q0.171875 -0.1875 0.171875 -0.484375l0 -8.40625q0 -0.53125 -0.53125 -0.53125q-0.53125 0 -0.53125 0.515625zm-5.015625 9.78125q-3.203125 0 -4.90625 0.765625q-1.484375 0.703125 -1.484375 1.859375q0 1.15625 1.484375 1.84375q1.671875 0.78125 4.90625 0.78125q3.25 0 4.9375 -0.78125q1.515625 -0.6875 1.515625 -1.84375q0 -1.15625 -1.515625 -1.859375q-1.6875 -0.765625 -4.9375 -0.765625zm0 0.96875q2.75 0 4.09375 0.453125q1.25 0.40625 1.25 1.203125q0 0.765625 -1.25 1.1875q-1.34375 0.484375 -4.09375 0.484375q-2.703125 0 -4.0625 -0.484375q-1.203125 -0.421875 -1.203125 -1.1875q0 -0.796875 1.203125 -1.203125q1.328125 -0.453125 4.0625 -0.453125z" fill-rule="nonzero"/><path fill="#000000" d="m192.46191 314.7704l-1.640625 0l0 -10.453125q-0.59375 0.5625 -1.5625 1.140625q-0.953125 0.5625 -1.71875 0.84375l0 -1.59375q1.375 -0.640625 2.40625 -1.5625q1.03125 -0.921875 1.453125 -1.78125l1.0625 0l0 13.40625z" fill-rule="nonzero"/><path fill="#000000" fill-opacity="0.0" d="m270.60892 231.50656c0 38.17169 0.01574707 57.256775 0.03149414 76.343414c0.01574707 19.086609 0.03149414 38.174744 0.03149414 76.34949" fill-rule="evenodd"/><path stroke="#595959" stroke-width="1.0" stroke-linejoin="round" stroke-linecap="butt" d="m270.60892 231.50656c0 38.171722 0.01574707 57.256775 0.03149414 76.343414c0.007873535 9.543304 0.01574707 19.087006 0.02166748 31.016693c0.002960205 5.9648743 0.0054016113 12.526215 0.0071411133 19.9823l0.002319336 21.923431" fill-rule="evenodd"/><path fill="#595959" stroke="#595959" stroke-width="1.0" stroke-linecap="butt" d="m270.67154 380.7724l-1.1246948 -1.1244812l1.1249084 3.0896606l1.1242676 -3.0899048z" fill-rule="evenodd"/><path fill="#000000" fill-opacity="0.0" d="m270.60892 231.50656c0 12.589798 -25.377945 18.884323 -50.755905 25.179596c-25.377945 6.2952576 -50.755905 12.591309 -50.755905 25.182617" fill-rule="evenodd"/><path stroke="#595959" stroke-width="1.0" stroke-linejoin="round" stroke-linecap="butt" d="m270.60892 231.50656c0 12.589798 -25.377945 18.884308 -50.755905 25.179596c-12.688965 3.1476135 -25.377945 6.2954407 -34.894684 10.230286c-4.758362 1.9674072 -8.723663 4.131592 -11.499374 6.590851c-1.3878632 1.2296448 -2.4783173 2.5330505 -3.221817 3.9225464c-0.18586731 0.34735107 -0.35005188 0.70010376 -0.49179077 1.0584412l-0.0053863525 0.014221191" fill-rule="evenodd"/><path fill="#595959" stroke="#595959" stroke-width="1.0" stroke-linecap="butt" d="m169.73996 278.5025l-0.89367676 -1.3155518l0.52505493 3.2458496l1.6841888 -2.8239746z" fill-rule="evenodd"/><path fill="#000000" fill-opacity="0.0" d="m98.34121 231.50656l159.08661 0l0 53.700775l-159.08661 0z" fill-rule="evenodd"/><path fill="#000000" d="m117.950584 243.66594l-8.1875 0q-0.359375 0 -0.359375 0.328125q0 0.34375 0.34375 0.34375l3.71875 0l0 0.609375q0 1.359375 -1.234375 2.546875q-1.25 1.171875 -2.875 1.390625q-0.203125 0.03125 -0.296875 0.171875q-0.09375 0.125 -0.0625 0.28125q0.015625 0.140625 0.140625 0.234375q0.140625 0.109375 0.34375 0.078125q1.484375 -0.265625 2.828125 -1.328125q1.15625 -0.9375 1.53125 -1.890625q0.34375 0.9375 1.546875 1.875q1.34375 1.078125 2.859375 1.34375q0.171875 0.03125 0.296875 -0.078125q0.125 -0.09375 0.140625 -0.234375q0.03125 -0.140625 -0.046875 -0.265625q-0.09375 -0.140625 -0.265625 -0.15625q-1.6875 -0.25 -2.9375 -1.4375q-1.21875 -1.171875 -1.21875 -2.53125l0 -0.609375l3.734375 0q0.328125 0 0.328125 -0.34375q0 -0.328125 -0.328125 -0.328125zm-4.484375 6.140625l0 2.625l-4.546875 0q-0.1875 0 -0.28125 0.09375q-0.09375 0.09375 -0.109375 0.21875q0 0.125 0.0625 0.234375q0.078125 0.09375 0.21875 0.09375l9.96875 0q0.171875 0 0.265625 -0.09375q0.109375 -0.109375 0.109375 -0.234375q0 -0.125 -0.109375 -0.21875q-0.09375 -0.09375 -0.28125 -0.09375l-4.546875 0l0 -2.578125q0 -0.171875 -0.140625 -0.28125q-0.09375 -0.09375 -0.234375 -0.09375q-0.15625 -0.015625 -0.25 0.0625q-0.125 0.09375 -0.125 0.265625zm12.578125 -6.078125l-3.8125 0q-0.359375 0 -0.34375 0.3125q0 0.328125 0.359375 0.328125l3.8125 0q0.28125 0 0.40625 0.125q0.15625 0.125 0.15625 0.390625l0 0.625q0 1.46875 -1.1875 2.453125q-1.25 1.015625 -3.390625 1.171875q-0.1875 0 -0.3125 0.09375q-0.078125 0.109375 -0.0625 0.234375q0 0.140625 0.109375 0.21875q0.109375 0.09375 0.296875 0.09375q2.359375 -0.15625 3.84375 -1.375q1.4375 -1.171875 1.4375 -2.875l0 -0.6875q0 -0.53125 -0.359375 -0.828125q-0.359375 -0.28125 -0.953125 -0.28125zm4.8906174 6.953125l0 -6.953125q0 -0.203125 -0.125 -0.296875q-0.109375 -0.09375 -0.265625 -0.09375q-0.15625 0 -0.265625 0.09375q-0.109375 0.09375 -0.109375 0.296875l0 2.890625l-2.3437424 0q-0.1875 0 -0.28125 0.078125q-0.109375 0.109375 -0.09375 0.234375q0 0.125 0.109375 0.234375q0.125 0.09375 0.328125 0.09375l2.2812424 0l0 3.421875q0 0.1875 0.109375 0.296875q0.109375 0.109375 0.265625 0.109375q0.15625 0 0.265625 -0.109375q0.125 -0.109375 0.125 -0.296875zm-7.4062424 0.15625q0 -0.203125 -0.125 -0.328125q-0.109375 -0.09375 -0.25 -0.09375q-0.171875 0 -0.265625 0.09375q-0.125 0.125 -0.125 0.328125l0 1.6875q0 0.546875 0.359375 0.84375q0.328125 0.28125 0.90625 0.28125l6.9687424 0q0.3125 0 0.3125 -0.328125q0 -0.328125 -0.3125 -0.328125l-6.8437424 0q-0.375 0 -0.5 -0.109375q-0.125 -0.125 -0.125 -0.46875l0 -1.578125zm14.343742 -7.1875q-1.390625 0 -2.1875 1.421875q-0.734375 1.296875 -0.734375 3.25q0 1.921875 0.734375 3.203125q0.796875 1.421875 2.1875 1.421875q1.375 0 2.15625 -1.421875q0.734375 -1.28125 0.734375 -3.203125q0 -1.953125 -0.734375 -3.25q-0.78125 -1.421875 -2.15625 -1.421875zm0 0.65625q1.015625 0 1.59375 1.203125q0.546875 1.109375 0.546875 2.8125q0 1.65625 -0.546875 2.78125q-0.578125 1.21875 -1.59375 1.21875q-1.046875 0 -1.625 -1.21875q-0.53125 -1.125 -0.53125 -2.78125q0 -1.703125 0.53125 -2.8125q0.578125 -1.203125 1.625 -1.203125zm6.0625 9.25l0 -9.875q0 -0.15625 -0.125 -0.265625q-0.109375 -0.078125 -0.265625 -0.078125q-0.15625 0 -0.265625 0.078125q-0.109375 0.109375 -0.109375 0.265625l0 9.875q0 0.1875 0.109375 0.296875q0.109375 0.09375 0.265625 0.09375q0.15625 0 0.265625 -0.09375q0.125 -0.109375 0.125 -0.296875z" fill-rule="nonzero"/><path fill="#000000" d="m156.40356 244.82219l0 2.859375q0 0.296875 -0.140625 0.40625q-0.125 0.109375 -0.421875 0.109375l-2.71875 0q-0.328125 0 -0.4375 -0.109375q-0.125 -0.09375 -0.125 -0.375l0 -2.828125q0 -0.328125 0.109375 -0.46875q0.125 -0.140625 0.4375 -0.140625l2.703125 0q0.328125 0 0.46875 0.140625q0.125 0.125 0.125 0.40625zm-0.390625 -1.1875l-3.078125 0q-0.515625 0 -0.828125 0.328125q-0.296875 0.296875 -0.296875 0.765625l0 3.109375q0 0.453125 0.296875 0.734375q0.28125 0.265625 0.78125 0.265625l3.078125 0q0.53125 0 0.84375 -0.265625q0.328125 -0.28125 0.328125 -0.734375l0 -3.1875q0 -0.46875 -0.296875 -0.75q-0.3125 -0.265625 -0.828125 -0.265625zm4.25 2.765625l0 -2.734375q0 -0.34375 -0.375 -0.34375q-0.375 0 -0.375 0.34375l0 5.09375q0 0.171875 0.109375 0.28125q0.109375 0.09375 0.265625 0.09375q0.140625 0 0.25 -0.09375q0.125 -0.109375 0.125 -0.28125l0 -1.71875l1.390625 0q0.328125 0 0.328125 -0.328125q0 -0.3125 -0.328125 -0.3125l-1.390625 0zm0.078125 3.640625l-7.75 0q-0.390625 0 -0.40625 0.3125q0 0.34375 0.34375 0.34375l3.546875 0q-0.078125 0.96875 -1.109375 1.75q-1.046875 0.765625 -2.484375 0.890625q-0.203125 0 -0.3125 0.109375q-0.109375 0.09375 -0.09375 0.234375q0.015625 0.140625 0.109375 0.21875q0.125 0.09375 0.328125 0.09375q1.46875 -0.125 2.59375 -0.828125q0.96875 -0.609375 1.34375 -1.390625q0.34375 0.78125 1.328125 1.390625q1.125 0.703125 2.609375 0.828125q0.1875 0.015625 0.3125 -0.09375q0.09375 -0.078125 0.109375 -0.21875q0 -0.140625 -0.09375 -0.234375q-0.109375 -0.109375 -0.296875 -0.109375q-1.453125 -0.125 -2.5 -0.890625q-1.046875 -0.78125 -1.125 -1.75l3.578125 0q0.34375 0 0.328125 -0.34375q0 -0.3125 -0.359375 -0.3125zm9.203125 -6.640625q-2.265625 0 -3.40625 0.484375q-1.03125 0.453125 -1.03125 1.265625q0 0.796875 1.03125 1.234375q1.140625 0.5 3.40625 0.5q2.265625 0 3.390625 -0.5q1.046875 -0.4375 1.046875 -1.234375q0 -0.8125 -1.046875 -1.265625q-1.125 -0.484375 -3.390625 -0.484375zm0 0.65625q1.921875 0 2.828125 0.28125q0.859375 0.265625 0.859375 0.8125q0 0.515625 -0.859375 0.78125q-0.890625 0.296875 -2.828125 0.296875q-1.9375 0 -2.84375 -0.296875q-0.84375 -0.265625 -0.84375 -0.78125q0 -0.546875 0.84375 -0.8125q0.921875 -0.28125 2.84375 -0.28125zm4.921875 4.0625l-9.84375 0q-0.375 0 -0.390625 0.296875q-0.015625 0.3125 0.328125 0.3125l9.9375 0q0.359375 0 0.359375 -0.3125q-0.015625 -0.296875 -0.390625 -0.296875zm-1.796875 1.671875l-7.046875 0q-0.375 0 -0.390625 0.3125q0 0.328125 0.375 0.328125l6.96875 0q0.265625 0 0.390625 0.09375q0.109375 0.109375 0.109375 0.3125l0 0.328125q0 0.15625 -0.125 0.234375q-0.125 0.078125 -0.34375 0.078125l-6.375 0q-0.46875 0 -0.71875 0.234375q-0.265625 0.265625 -0.265625 0.671875l0 0.5625q0 0.390625 0.25 0.625q0.234375 0.25 0.671875 0.25l7.46875 0q0.15625 0 0.25 -0.109375q0.09375 -0.09375 0.09375 -0.234375q-0.015625 -0.125 -0.109375 -0.21875q-0.109375 -0.09375 -0.296875 -0.09375l-7.125 0q-0.234375 0 -0.328125 -0.078125q-0.109375 -0.078125 -0.109375 -0.265625l0 -0.296875q0 -0.203125 0.09375 -0.296875q0.09375 -0.109375 0.359375 -0.109375l6.4375 0q0.40625 0 0.671875 -0.265625q0.265625 -0.234375 0.265625 -0.609375l0 -0.609375q0 -0.390625 -0.359375 -0.625q-0.328125 -0.21875 -0.8125 -0.21875zm9.15625 -6.15625l-3.890625 0q-0.359375 0 -0.34375 0.3125q0 0.328125 0.359375 0.328125l3.796875 0q0.265625 0 0.421875 0.125q0.15625 0.140625 0.15625 0.40625l0 0.546875q0 1.4375 -1.171875 2.234375q-1.171875 0.78125 -3.375 0.875q-0.203125 0 -0.3125 0.109375q-0.09375 0.09375 -0.09375 0.234375q0 0.125 0.125 0.203125q0.109375 0.09375 0.296875 0.09375q2.5 -0.109375 3.890625 -1.109375q1.375 -1.0 1.375 -2.625l0 -0.671875q0 -0.484375 -0.359375 -0.765625q-0.34375 -0.296875 -0.875 -0.296875zm4.8125 5.90625l0 -5.8125q0 -0.203125 -0.125 -0.296875q-0.109375 -0.09375 -0.265625 -0.09375q-0.15625 0 -0.265625 0.09375q-0.109375 0.09375 -0.109375 0.296875l0 1.21875l-2.1875 0q-0.1875 0 -0.296875 0.09375q-0.109375 0.109375 -0.109375 0.234375q0 0.125 0.109375 0.21875q0.109375 0.109375 0.296875 0.109375l2.1875 0l0 1.875l-2.1875 0q-0.1875 0 -0.296875 0.109375q-0.109375 0.078125 -0.109375 0.21875q0 0.125 0.109375 0.21875q0.109375 0.109375 0.296875 0.109375l2.1875 0l0 1.40625q0 0.15625 0.109375 0.265625q0.109375 0.078125 0.265625 0.078125q0.15625 0 0.265625 -0.078125q0.125 -0.109375 0.125 -0.265625zm-4.09375 0.328125q-2.0625 0 -3.1875 0.609375q-0.984375 0.5625 -0.984375 1.453125q0 0.859375 0.984375 1.421875q1.125 0.625 3.1875 0.625q2.0625 0 3.171875 -0.625q1.0 -0.546875 1.0 -1.421875q0 -0.890625 -1.0 -1.453125q-1.109375 -0.609375 -3.171875 -0.609375zm0 0.625q1.71875 0 2.609375 0.421875q0.828125 0.390625 0.828125 1.015625q0 0.59375 -0.828125 0.984375q-0.90625 0.421875 -2.609375 0.421875q-1.71875 0 -2.625 -0.421875q-0.8125 -0.390625 -0.8125 -0.984375q0 -0.625 0.8125 -1.015625q0.90625 -0.421875 2.625 -0.421875zm13.0 -6.984375q-2.203125 0 -3.359375 0.6875q-1.078125 0.609375 -1.078125 1.625q0 1.015625 1.078125 1.640625q1.171875 0.703125 3.359375 0.703125q2.171875 0 3.359375 -0.703125q1.078125 -0.625 1.078125 -1.640625q0 -1.015625 -1.078125 -1.625q-1.171875 -0.6875 -3.359375 -0.6875zm0 0.640625q1.8125 0 2.796875 0.484375q0.890625 0.4375 0.890625 1.1875q0 0.75 -0.890625 1.1875q-0.96875 0.5 -2.796875 0.5q-1.84375 0 -2.8125 -0.5q-0.875 -0.4375 -0.875 -1.1875q0 -0.75 0.875 -1.1875q0.984375 -0.484375 2.8125 -0.484375zm4.953125 5.375l-9.875 0q-0.359375 0 -0.375 0.3125q-0.015625 0.328125 0.328125 0.328125l4.59375 0l0 3.40625q0 0.171875 0.125 0.296875q0.09375 0.078125 0.25 0.078125q0.140625 0 0.234375 -0.09375q0.140625 -0.109375 0.140625 -0.296875l0 -3.390625l4.609375 0q0.328125 0 0.328125 -0.328125q-0.015625 -0.3125 -0.359375 -0.3125z" fill-rule="nonzero"/><path fill="#000000" fill-opacity="0.0" d="m277.39633 252.21785l159.08661 0l0 53.70079l-159.08661 0z" fill-rule="evenodd"/><path fill="#000000" d="m297.0057 264.37723l-8.1875 0q-0.359375 0 -0.359375 0.328125q0 0.34375 0.34375 0.34375l3.71875 0l0 0.609375q0 1.359375 -1.234375 2.546875q-1.25 1.171875 -2.875 1.390625q-0.203125 0.03125 -0.296875 0.171875q-0.09375 0.125 -0.0625 0.28125q0.015625 0.140625 0.140625 0.234375q0.140625 0.109375 0.34375 0.078125q1.484375 -0.265625 2.828125 -1.328125q1.15625 -0.9375 1.53125 -1.890625q0.34375 0.9375 1.546875 1.875q1.34375 1.078125 2.859375 1.34375q0.171875 0.03125 0.296875 -0.078125q0.125 -0.09375 0.140625 -0.234375q0.03125 -0.140625 -0.046875 -0.265625q-0.09375 -0.140625 -0.265625 -0.15625q-1.6875 -0.25 -2.9375 -1.4375q-1.21875 -1.171875 -1.21875 -2.53125l0 -0.609375l3.734375 0q0.328125 0 0.328125 -0.34375q0 -0.328125 -0.328125 -0.328125zm-4.484375 6.140625l0 2.625l-4.546875 0q-0.1875 0 -0.28125 0.09375q-0.09375 0.09375 -0.109375 0.21875q0 0.125 0.0625 0.234375q0.078125 0.09375 0.21875 0.09375l9.96875 0q0.171875 0 0.265625 -0.09375q0.109375 -0.109375 0.109375 -0.234375q0 -0.125 -0.109375 -0.21875q-0.09375 -0.09375 -0.28125 -0.09375l-4.546875 0l0 -2.578125q0 -0.171875 -0.140625 -0.28125q-0.09375 -0.09375 -0.234375 -0.09375q-0.15625 -0.015625 -0.25 0.0625q-0.125 0.09375 -0.125 0.265625zm12.578125 -6.078125l-3.8125 0q-0.359375 0 -0.34375 0.3125q0 0.328125 0.359375 0.328125l3.8125 0q0.28125 0 0.40625 0.125q0.15625 0.125 0.15625 0.390625l0 0.625q0 1.46875 -1.1875 2.453125q-1.25 1.015625 -3.390625 1.171875q-0.1875 0 -0.3125 0.09375q-0.078125 0.109375 -0.0625 0.234375q0 0.140625 0.109375 0.21875q0.109375 0.09375 0.296875 0.09375q2.359375 -0.15625 3.84375 -1.375q1.4375 -1.171875 1.4375 -2.875l0 -0.6875q0 -0.53125 -0.359375 -0.828125q-0.359375 -0.28125 -0.953125 -0.28125zm4.890625 6.953125l0 -6.953125q0 -0.203125 -0.125 -0.296875q-0.109375 -0.09375 -0.265625 -0.09375q-0.15625 0 -0.265625 0.09375q-0.109375 0.09375 -0.109375 0.296875l0 2.890625l-2.34375 0q-0.1875 0 -0.28125 0.078125q-0.109375 0.109375 -0.09375 0.234375q0 0.125 0.109375 0.234375q0.125 0.09375 0.328125 0.09375l2.28125 0l0 3.421875q0 0.1875 0.109375 0.296875q0.109375 0.109375 0.265625 0.109375q0.15625 0 0.265625 -0.109375q0.125 -0.109375 0.125 -0.296875zm-7.40625 0.15625q0 -0.203125 -0.125 -0.328125q-0.109375 -0.09375 -0.25 -0.09375q-0.171875 0 -0.265625 0.09375q-0.125 0.125 -0.125 0.328125l0 1.6875q0 0.546875 0.359375 0.84375q0.328125 0.28125 0.90625 0.28125l6.96875 0q0.3125 0 0.3125 -0.328125q0 -0.328125 -0.3125 -0.328125l-6.84375 0q-0.375 0 -0.5 -0.109375q-0.125 -0.125 -0.125 -0.46875l0 -1.578125zm14.34375 -7.1875q-1.390625 0 -2.1875 1.421875q-0.734375 1.296875 -0.734375 3.25q0 1.921875 0.734375 3.203125q0.796875 1.421875 2.1875 1.421875q1.375 0 2.15625 -1.421875q0.734375 -1.28125 0.734375 -3.203125q0 -1.953125 -0.734375 -3.25q-0.78125 -1.421875 -2.15625 -1.421875zm0 0.65625q1.015625 0 1.59375 1.203125q0.546875 1.109375 0.546875 2.8125q0 1.65625 -0.546875 2.78125q-0.578125 1.21875 -1.59375 1.21875q-1.046875 0 -1.625 -1.21875q-0.53125 -1.125 -0.53125 -2.78125q0 -1.703125 0.53125 -2.8125q0.578125 -1.203125 1.625 -1.203125zm6.0625 9.25l0 -9.875q0 -0.15625 -0.125 -0.265625q-0.109375 -0.078125 -0.265625 -0.078125q-0.15625 0 -0.265625 0.078125q-0.109375 0.109375 -0.109375 0.265625l0 9.875q0 0.1875 0.109375 0.296875q0.109375 0.09375 0.265625 0.09375q0.15625 0 0.265625 -0.09375q0.125 -0.109375 0.125 -0.296875z" fill-rule="nonzero"/><path fill="#000000" d="m332.52118 268.0491l7.171875 0q0.34375 0 0.34375 -0.328125q-0.015625 -0.3125 -0.34375 -0.3125l-7.0625 0q-0.3125 0 -0.4375 -0.125q-0.125 -0.125 -0.125 -0.390625l0 -0.453125l7.46875 0q0.359375 0 0.359375 -0.328125q0 -0.328125 -0.375 -0.328125l-7.453125 0l0 -0.515625q0 -0.21875 0.15625 -0.328125q0.15625 -0.09375 0.4375 -0.09375l7.03125 0q0.15625 0 0.265625 -0.109375q0.078125 -0.09375 0.078125 -0.234375q0 -0.125 -0.109375 -0.21875q-0.09375 -0.09375 -0.265625 -0.09375l-7.140625 0q-0.546875 0 -0.875 0.296875q-0.34375 0.296875 -0.34375 0.765625l0 1.703125q0 0.46875 0.328125 0.78125q0.328125 0.3125 0.890625 0.3125zm8.0 0.921875l-9.84375 0q-0.375 0 -0.390625 0.3125q0 0.3125 0.359375 0.3125l9.9375 0q0.140625 0 0.25 -0.09375q0.078125 -0.09375 0.078125 -0.21875q0 -0.125 -0.109375 -0.21875q-0.09375 -0.09375 -0.28125 -0.09375zm-1.796875 1.53125l-7.046875 0q-0.375 0 -0.390625 0.3125q0 0.328125 0.375 0.328125l6.96875 0q0.265625 0 0.390625 0.09375q0.109375 0.109375 0.109375 0.3125l0 0.328125q0 0.15625 -0.125 0.234375q-0.125 0.078125 -0.34375 0.078125l-6.375 0q-0.46875 0 -0.71875 0.234375q-0.265625 0.265625 -0.265625 0.671875l0 0.5625q0 0.390625 0.25 0.625q0.234375 0.25 0.671875 0.25l7.46875 0q0.15625 0 0.25 -0.109375q0.09375 -0.09375 0.09375 -0.234375q-0.015625 -0.125 -0.109375 -0.21875q-0.109375 -0.09375 -0.296875 -0.09375l-7.125 0q-0.234375 0 -0.328125 -0.078125q-0.109375 -0.078125 -0.109375 -0.265625l0 -0.296875q0 -0.203125 0.09375 -0.296875q0.09375 -0.109375 0.359375 -0.109375l6.4375 0q0.40625 0 0.671875 -0.265625q0.265625 -0.234375 0.265625 -0.609375l0 -0.609375q0 -0.390625 -0.359375 -0.625q-0.328125 -0.21875 -0.8125 -0.21875zm9.109375 -6.1875l-3.625 0q-0.40625 0 -0.40625 0.328125q-0.015625 0.328125 0.375 0.328125l3.59375 0q0.25 0 0.40625 0.109375q0.15625 0.125 0.15625 0.375l0 0.40625q0 0.265625 -0.125 0.375q-0.109375 0.09375 -0.4375 0.09375l-2.765625 0q-0.5625 0 -0.859375 0.328125q-0.28125 0.296875 -0.28125 0.8125l0 0.765625q0 0.515625 0.296875 0.8125q0.3125 0.328125 0.953125 0.328125q1.71875 0 2.859375 -0.109375q1.578125 -0.15625 2.6875 -0.546875q0.140625 -0.0625 0.203125 -0.203125q0.03125 -0.125 -0.015625 -0.25q-0.046875 -0.125 -0.1875 -0.1875q-0.125 -0.0625 -0.28125 0.015625q-0.890625 0.328125 -2.28125 0.5q-1.28125 0.171875 -2.90625 0.171875q-0.296875 0 -0.4375 -0.15625q-0.140625 -0.140625 -0.140625 -0.453125l0 -0.65625q0 -0.265625 0.109375 -0.390625q0.125 -0.125 0.390625 -0.125l2.765625 0q0.59375 0 0.890625 -0.25q0.28125 -0.265625 0.28125 -0.75l0 -0.703125q0 -0.453125 -0.328125 -0.71875q-0.328125 -0.25 -0.890625 -0.25zm4.859375 4.90625l0 -4.84375q0 -0.15625 -0.125 -0.25q-0.109375 -0.09375 -0.265625 -0.09375q-0.15625 0 -0.265625 0.09375q-0.109375 0.109375 -0.109375 0.265625l0 4.828125q0 0.15625 0.109375 0.265625q0.109375 0.09375 0.265625 0.09375q0.15625 0 0.265625 -0.09375q0.125 -0.109375 0.125 -0.265625zm-1.15625 1.03125l-6.75 0q-0.390625 0 -0.375 0.328125q0 0.328125 0.375 0.328125l6.640625 0q0.265625 0 0.390625 0.09375q0.109375 0.078125 0.109375 0.3125l0 0.34375q0 0.171875 -0.140625 0.25q-0.109375 0.078125 -0.34375 0.078125l-6.046875 0q-0.421875 0 -0.6875 0.234375q-0.265625 0.25 -0.265625 0.671875l0 0.734375q0 0.40625 0.28125 0.65625q0.265625 0.25 0.703125 0.25l7.25 0q0.15625 0 0.25 -0.109375q0.09375 -0.09375 0.09375 -0.234375q-0.015625 -0.125 -0.109375 -0.21875q-0.109375 -0.09375 -0.28125 -0.09375l-6.984375 0q-0.234375 0 -0.328125 -0.078125q-0.125 -0.078125 -0.125 -0.265625l0 -0.5q0 -0.203125 0.09375 -0.296875q0.109375 -0.109375 0.375 -0.109375l6.015625 0q0.453125 0 0.734375 -0.234375q0.28125 -0.234375 0.28125 -0.640625l0 -0.546875q0 -0.4375 -0.296875 -0.6875q-0.3125 -0.265625 -0.859375 -0.265625zm9.34375 -5.90625l-3.890625 0q-0.359375 0 -0.34375 0.3125q0 0.328125 0.359375 0.328125l3.796875 0q0.265625 0 0.421875 0.125q0.15625 0.140625 0.15625 0.40625l0 0.546875q0 1.4375 -1.171875 2.234375q-1.171875 0.78125 -3.375 0.875q-0.203125 0 -0.3125 0.109375q-0.09375 0.09375 -0.09375 0.234375q0 0.125 0.125 0.203125q0.109375 0.09375 0.296875 0.09375q2.5 -0.109375 3.890625 -1.109375q1.375 -1.0 1.375 -2.625l0 -0.671875q0 -0.484375 -0.359375 -0.765625q-0.34375 -0.296875 -0.875 -0.296875zm4.8125 5.90625l0 -5.8125q0 -0.203125 -0.125 -0.296875q-0.109375 -0.09375 -0.265625 -0.09375q-0.15625 0 -0.265625 0.09375q-0.109375 0.09375 -0.109375 0.296875l0 1.21875l-2.1875 0q-0.1875 0 -0.296875 0.09375q-0.109375 0.109375 -0.109375 0.234375q0 0.125 0.109375 0.21875q0.109375 0.109375 0.296875 0.109375l2.1875 0l0 1.875l-2.1875 0q-0.1875 0 -0.296875 0.109375q-0.109375 0.078125 -0.109375 0.21875q0 0.125 0.109375 0.21875q0.109375 0.109375 0.296875 0.109375l2.1875 0l0 1.40625q0 0.15625 0.109375 0.265625q0.109375 0.078125 0.265625 0.078125q0.15625 0 0.265625 -0.078125q0.125 -0.109375 0.125 -0.265625zm-4.09375 0.328125q-2.0625 0 -3.1875 0.609375q-0.984375 0.5625 -0.984375 1.453125q0 0.859375 0.984375 1.421875q1.125 0.625 3.1875 0.625q2.0625 0 3.171875 -0.625q1.0 -0.546875 1.0 -1.421875q0 -0.890625 -1.0 -1.453125q-1.109375 -0.609375 -3.171875 -0.609375zm0 0.625q1.71875 0 2.609375 0.421875q0.828125 0.390625 0.828125 1.015625q0 0.59375 -0.828125 0.984375q-0.90625 0.421875 -2.609375 0.421875q-1.71875 0 -2.625 -0.421875q-0.8125 -0.390625 -0.8125 -0.984375q0 -0.625 0.8125 -1.015625q0.90625 -0.421875 2.625 -0.421875zm13.0 -6.984375q-2.203125 0 -3.359375 0.6875q-1.078125 0.609375 -1.078125 1.625q0 1.015625 1.078125 1.640625q1.171875 0.703125 3.359375 0.703125q2.171875 0 3.359375 -0.703125q1.078125 -0.625 1.078125 -1.640625q0 -1.015625 -1.078125 -1.625q-1.171875 -0.6875 -3.359375 -0.6875zm0 0.640625q1.8125 0 2.796875 0.484375q0.890625 0.4375 0.890625 1.1875q0 0.75 -0.890625 1.1875q-0.96875 0.5 -2.796875 0.5q-1.84375 0 -2.8125 -0.5q-0.875 -0.4375 -0.875 -1.1875q0 -0.75 0.875 -1.1875q0.984375 -0.484375 2.8125 -0.484375zm4.953125 5.375l-9.875 0q-0.359375 0 -0.375 0.3125q-0.015625 0.328125 0.328125 0.328125l4.59375 0l0 3.40625q0 0.171875 0.125 0.296875q0.09375 0.078125 0.25 0.078125q0.140625 0 0.234375 -0.09375q0.140625 -0.109375 0.140625 -0.296875l0 -3.390625l4.609375 0q0.328125 0 0.328125 -0.328125q-0.015625 -0.3125 -0.359375 -0.3125z" fill-rule="nonzero"/><path fill="#fff2cc" d="m115.9895 95.30192l0 0c0 -2.1338043 1.7297897 -3.863594 3.863594 -3.863594l45.02871 0c1.0246887 0 2.0074158 0.4070511 2.7319794 1.1316147c0.7245636 0.7245636 1.1316223 1.7072906 1.1316223 2.7319794l0 15.453911c0 2.1338043 -1.7297974 3.863594 -3.8636017 3.863594l-45.02871 0c-2.1338043 0 -3.863594 -1.7297897 -3.863594 -3.863594z" fill-rule="evenodd"/><path stroke="#666666" stroke-width="1.0" stroke-linejoin="round" stroke-linecap="butt" d="m115.9895 95.30192l0 0c0 -2.1338043 1.7297897 -3.863594 3.863594 -3.863594l45.02871 0c1.0246887 0 2.0074158 0.4070511 2.7319794 1.1316147c0.7245636 0.7245636 1.1316223 1.7072906 1.1316223 2.7319794l0 15.453911c0 2.1338043 -1.7297974 3.863594 -3.8636017 3.863594l-45.02871 0c-2.1338043 0 -3.863594 -1.7297897 -3.863594 -3.863594z" fill-rule="evenodd"/><path fill="#000000" d="m139.97684 98.18825l-8.1875 0q-0.359375 0 -0.359375 0.328125q0 0.34375 0.34375 0.34375l3.71875 0l0 0.609375q0 1.359375 -1.234375 2.546875q-1.25 1.171875 -2.875 1.390625q-0.203125 0.03125 -0.296875 0.171875q-0.09375 0.125 -0.0625 0.28125q0.015625 0.140625 0.140625 0.234375q0.140625 0.109375 0.34375 0.078125q1.484375 -0.265625 2.828125 -1.328125q1.15625 -0.9375 1.53125 -1.890625q0.34375 0.9375 1.546875 1.875q1.34375 1.078125 2.859375 1.34375q0.171875 0.03125 0.296875 -0.078125q0.125 -0.09375 0.140625 -0.234375q0.03125 -0.140625 -0.046875 -0.265625q-0.09375 -0.140625 -0.265625 -0.15625q-1.6875 -0.25 -2.9375 -1.4375q-1.21875 -1.171875 -1.21875 -2.53125l0 -0.609375l3.734375 0q0.328125 0 0.328125 -0.34375q0 -0.328125 -0.328125 -0.328125zm-4.484375 6.140625l0 2.625l-4.546875 0q-0.1875 0 -0.28125 0.09375q-0.09375 0.09375 -0.109375 0.21875q0 0.125 0.0625 0.234375q0.078125 0.09375 0.21875 0.09375l9.96875 0q0.171875 0 0.265625 -0.09375q0.109375 -0.109375 0.109375 -0.234375q0 -0.125 -0.109375 -0.21875q-0.09375 -0.09375 -0.28125 -0.09375l-4.546875 0l0 -2.578125q0 -0.171875 -0.140625 -0.28125q-0.09375 -0.09375 -0.234375 -0.09375q-0.15625 -0.015625 -0.25 0.0625q-0.125 0.09375 -0.125 0.265625zm12.578125 -6.078125l-3.8125 0q-0.359375 0 -0.34375 0.3125q0 0.328125 0.359375 0.328125l3.8125 0q0.28125 0 0.40625 0.125q0.15625 0.125 0.15625 0.390625l0 0.625q0 1.46875 -1.1875 2.453125q-1.25 1.015625 -3.390625 1.171875q-0.1875 0 -0.3125 0.09375q-0.078125 0.109375 -0.0625 0.234375q0 0.140625 0.109375 0.21875q0.109375 0.09375 0.296875 0.09375q2.359375 -0.15625 3.84375 -1.375q1.4375 -1.171875 1.4375 -2.875l0 -0.6875q0 -0.53125 -0.359375 -0.828125q-0.359375 -0.28125 -0.953125 -0.28125zm4.890625 6.953125l0 -6.953125q0 -0.203125 -0.125 -0.296875q-0.109375 -0.09375 -0.265625 -0.09375q-0.15625 0 -0.265625 0.09375q-0.109375 0.09375 -0.109375 0.296875l0 2.890625l-2.34375 0q-0.1875 0 -0.28125 0.078125q-0.109375 0.109375 -0.09375 0.234375q0 0.125 0.109375 0.234375q0.125 0.09375 0.328125 0.09375l2.28125 0l0 3.421875q0 0.1875 0.109375 0.296875q0.109375 0.109375 0.265625 0.109375q0.15625 0 0.265625 -0.109375q0.125 -0.109375 0.125 -0.296875zm-7.40625 0.15625q0 -0.203125 -0.125 -0.328125q-0.109375 -0.09375 -0.25 -0.09375q-0.171875 0 -0.265625 0.09375q-0.125 0.125 -0.125 0.328125l0 1.6875q0 0.546875 0.359375 0.84375q0.328125 0.28125 0.90625 0.28125l6.96875 0q0.3125 0 0.3125 -0.328125q0 -0.328125 -0.3125 -0.328125l-6.84375 0q-0.375 0 -0.5 -0.109375q-0.125 -0.125 -0.125 -0.46875l0 -1.578125z" fill-rule="nonzero"/><path fill="#fff2cc" d="m126.3937 132.87935l0 0c0 -2.1338043 1.7297897 -3.8636017 3.863594 -3.8636017l52.17833 0c1.0246887 0 2.0074005 0.40705872 2.731964 1.1316223c0.7245636 0.7245636 1.1316223 1.7072906 1.1316223 2.7319794l0 15.453903c0 2.1338043 -1.7297821 3.8636017 -3.8635864 3.8636017l-52.17833 0l0 0c-2.1338043 0 -3.863594 -1.7297974 -3.863594 -3.8636017z" fill-rule="evenodd"/><path stroke="#666666" stroke-width="1.0" stroke-linejoin="round" stroke-linecap="butt" d="m126.3937 132.87935l0 0c0 -2.1338043 1.7297897 -3.8636017 3.863594 -3.8636017l52.17833 0c1.0246887 0 2.0074005 0.40705872 2.731964 1.1316223c0.7245636 0.7245636 1.1316223 1.7072906 1.1316223 2.7319794l0 15.453903c0 2.1338043 -1.7297821 3.8636017 -3.8635864 3.8636017l-52.17833 0l0 0c-2.1338043 0 -3.863594 -1.7297974 -3.863594 -3.8636017z" fill-rule="evenodd"/><path fill="#000000" d="m142.00748 136.01567q0 0.921875 -0.65625 2.109375q-0.78125 1.421875 -2.109375 2.375q-0.1875 0.09375 -0.203125 0.25q-0.03125 0.140625 0.0625 0.25q0.078125 0.109375 0.21875 0.140625q0.140625 0.03125 0.296875 -0.078125q0.9375 -0.71875 1.578125 -1.46875q0.484375 -0.59375 1.03125 -1.5q0.84375 0.46875 1.546875 1.109375q0.65625 0.625 1.296875 1.515625q0.109375 0.15625 0.265625 0.1875q0.140625 0 0.28125 -0.078125q0.109375 -0.078125 0.125 -0.234375q0.015625 -0.171875 -0.09375 -0.328125q-0.75 -0.984375 -1.375 -1.546875q-0.75 -0.671875 -1.828125 -1.265625l0.03125 -0.109375q0.140625 -0.390625 0.1875 -0.609375q0.09375 -0.359375 0.09375 -0.71875q0 -0.1875 -0.125 -0.296875q-0.109375 -0.09375 -0.265625 -0.09375q-0.140625 0 -0.25 0.09375q-0.109375 0.109375 -0.109375 0.296875zm6.375 4.59375l0 -4.84375q0 -0.15625 -0.125 -0.25q-0.109375 -0.09375 -0.265625 -0.09375q-0.15625 0 -0.265625 0.09375q-0.109375 0.109375 -0.109375 0.265625l0 4.828125q0 0.15625 0.109375 0.265625q0.109375 0.09375 0.265625 0.09375q0.15625 0 0.265625 -0.09375q0.125 -0.109375 0.125 -0.265625zm-1.15625 1.03125l-6.75 0q-0.390625 0 -0.375 0.328125q0 0.328125 0.375 0.328125l6.640625 0q0.265625 0 0.390625 0.09375q0.109375 0.078125 0.109375 0.3125l0 0.34375q0 0.171875 -0.140625 0.25q-0.109375 0.078125 -0.34375 0.078125l-6.046875 0q-0.421875 0 -0.6875 0.234375q-0.265625 0.25 -0.265625 0.671875l0 0.734375q0 0.40625 0.28125 0.65625q0.265625 0.25 0.703125 0.25l7.25 0q0.15625 0 0.25 -0.109375q0.09375 -0.09375 0.09375 -0.234375q-0.015625 -0.125 -0.109375 -0.21875q-0.109375 -0.09375 -0.28125 -0.09375l-6.984375 0q-0.234375 0 -0.328125 -0.078125q-0.125 -0.078125 -0.125 -0.265625l0 -0.5q0 -0.203125 0.09375 -0.296875q0.109375 -0.109375 0.375 -0.109375l6.015625 0q0.453125 0 0.734375 -0.234375q0.28125 -0.234375 0.28125 -0.640625l0 -0.546875q0 -0.4375 -0.296875 -0.6875q-0.3125 -0.265625 -0.859375 -0.265625zm10.171875 -4.59375l-4.9375 0q-0.34375 0 -0.34375 0.328125q0 0.328125 0.34375 0.328125l4.984375 0q0.15625 0 0.25 -0.109375q0.09375 -0.09375 0.09375 -0.21875q-0.015625 -0.125 -0.109375 -0.234375q-0.109375 -0.09375 -0.28125 -0.09375zm-1.265625 -1.46875l-2.34375 0q-0.375 0 -0.375 0.3125q0 0.34375 0.375 0.34375l2.359375 0q0.359375 0 0.359375 -0.34375q0 -0.3125 -0.375 -0.3125zm-1.171875 2.6875q-1.140625 0 -1.8125 0.53125q-0.59375 0.484375 -0.59375 1.203125q0 0.6875 0.59375 1.171875q0.671875 0.546875 1.8125 0.546875q1.125 0 1.78125 -0.546875q0.59375 -0.484375 0.59375 -1.171875q0 -0.71875 -0.59375 -1.203125q-0.640625 -0.53125 -1.78125 -0.53125zm0 0.640625q0.8125 0 1.25 0.328125q0.40625 0.3125 0.40625 0.765625q0 0.4375 -0.40625 0.71875q-0.4375 0.328125 -1.25 0.328125q-0.8125 0 -1.265625 -0.328125q-0.390625 -0.28125 -0.390625 -0.71875q0 -0.453125 0.390625 -0.765625q0.453125 -0.328125 1.265625 -0.328125zm6.015625 -3.109375l0 2.90625l-1.828125 0l0 -2.953125q0 -0.328125 -0.375 -0.328125q-0.359375 0 -0.359375 0.328125l0 5.515625q0 0.171875 0.109375 0.28125q0.09375 0.09375 0.25 0.09375q0.15625 0 0.25 -0.09375q0.125 -0.109375 0.125 -0.28125l0 -1.921875l1.828125 0l0 2.234375q0 0.203125 0.125 0.3125q0.09375 0.109375 0.25 0.109375q0.140625 0 0.234375 -0.109375q0.140625 -0.125 0.140625 -0.328125l0 -5.75q0 -0.375 -0.375 -0.375q-0.375 0 -0.375 0.359375zm-3.421875 6.6875q-2.1875 0 -3.34375 0.515625q-1.015625 0.484375 -1.015625 1.28125q0 0.796875 1.015625 1.265625q1.140625 0.53125 3.34375 0.53125q2.21875 0 3.375 -0.53125q1.046875 -0.46875 1.046875 -1.265625q0 -0.796875 -1.046875 -1.28125q-1.15625 -0.515625 -3.375 -0.515625zm0 0.65625q1.875 0 2.8125 0.328125q0.84375 0.28125 0.84375 0.8125q0 0.53125 -0.84375 0.8125q-0.9375 0.34375 -2.8125 0.34375q-1.859375 0 -2.78125 -0.34375q-0.828125 -0.28125 -0.828125 -0.8125q0 -0.53125 0.828125 -0.8125q0.921875 -0.328125 2.78125 -0.328125z" fill-rule="nonzero"/><path fill="#000000" d="m172.46046 145.4063l-1.171875 0l0 -7.46875q-0.421875 0.40625 -1.109375 0.8125q-0.6875 0.40625 -1.234375 0.609375l0 -1.140625q0.984375 -0.453125 1.71875 -1.109375q0.734375 -0.671875 1.03125 -1.28125l0.765625 0l0 9.578125z" fill-rule="nonzero"/><path fill="#000000" fill-opacity="0.0" d="m271.83728 105.99475l-1.228363 73.543304" fill-rule="evenodd"/><path stroke="#595959" stroke-width="1.0" stroke-linejoin="round" stroke-linecap="butt" d="m271.83728 105.99475l-1.1281433 67.54414" fill-rule="evenodd"/><path fill="#595959" stroke="#595959" stroke-width="1.0" stroke-linecap="butt" d="m269.05762 173.5113l1.5757141 4.565048l1.7272949 -4.5098724z" fill-rule="evenodd"/><path fill="#000000" fill-opacity="0.0" d="m212.67192 384.1942l115.87401 0l0 50.362213l-115.87401 0z" fill-rule="evenodd"/><path fill="#000000" fill-opacity="0.0" d="m169.10498 333.83466c0 12.589783 25.37796 18.884308 50.755905 25.179596c25.37796 6.2952576 50.755905 12.591278 50.755905 25.182587" fill-rule="evenodd"/><path stroke="#595959" stroke-width="1.0" stroke-linejoin="round" stroke-linecap="butt" d="m169.10498 333.83466c0 12.589813 25.37796 18.884308 50.755905 25.179565c12.68898 3.147644 25.37796 6.2955017 34.8947 10.230316c4.758362 1.9674072 8.723663 4.1315613 11.49939 6.590851c0.6939392 0.61483765 1.3135071 1.2480774 1.8525391 1.9013367c0.13476562 0.16329956 0.26446533 0.32788086 0.3890686 0.49368286c0.062286377 0.08291626 0.12332153 0.16616821 0.18301392 0.24969482l0.021453857 0.030792236" fill-rule="evenodd"/><path fill="#595959" stroke="#595959" stroke-width="1.0" stroke-linecap="butt" d="m267.13577 379.0383l3.0142517 3.7731628l0.11630249 -4.827942z" fill-rule="evenodd"/></g></svg>